<svg width="696" height="613" viewBox="0 0 696 613" fill="none" xmlns="http://www.w3.org/2000/svg">
<path fill-rule="evenodd" clip-rule="evenodd" d="M193.137 207.288C250.226 206.833 296.137 160.185 295.683 103.096C295.228 46.0068 248.58 0.0955731 191.491 0.550223C134.401 1.00487 88.4902 47.6533 88.9449 104.742C89.3995 161.831 136.048 207.743 193.137 207.288ZM695.995 194.122C696.211 221.257 674.389 243.43 647.254 243.646C620.119 243.862 597.946 222.04 597.73 194.905C597.514 167.77 619.336 145.597 646.471 145.381C673.607 145.165 695.779 166.987 695.995 194.122ZM187.495 480.224C188.17 564.859 120.106 634.016 35.4707 634.69C-49.1644 635.364 -118.321 567.3 -118.995 482.665C-119.669 398.03 -51.6052 328.873 33.0298 328.199C117.665 327.525 186.821 395.589 187.495 480.224Z" fill="url(#paint0_linear)"/>
<g clip-path="url(#clip0)">
<path d="M125.393 434.985C123.394 428.906 122.073 422.374 121.549 415.329C119.157 383.111 136.509 353.466 157.871 330.736C175.044 312.451 196.073 294.035 200.429 267.955C204.963 240.778 194.574 213.506 199.132 186.317C204.535 154.099 228.979 126.779 258.28 113.786C296.446 96.8368 339.409 104.608 373.612 126.993C391.535 138.722 407.114 154.051 418.931 171.942C430.13 188.892 434.438 213.733 453.908 223.578C466.166 229.776 480.733 226.749 493.598 224.425C523.458 219.013 558.887 235.259 545.629 270.553C538.56 289.387 530.015 306.324 528.147 326.766C526.183 348.186 532.514 365.481 541.94 384.183C551.33 402.838 559.91 420.824 550.437 441.493C537.989 468.622 509.105 487.622 483.042 499.995C447.744 516.765 408.125 522.964 369.328 523.572C339.278 524.048 309.299 520.961 279.618 516.479C225.945 508.386 145.22 495.084 125.393 434.985Z" fill="#C4E3FF"/>
<path d="M303.631 222.136C302.382 224.067 301.311 225.855 300.513 227.19C297.098 232.887 294.015 238.478 291.421 243.985C289.112 248.883 286.827 254.021 285.78 258.801C285.268 261.149 284.84 264.2 286.089 265.917C287.172 267.407 289.326 267.562 291.147 266.62C293.218 265.547 294.837 263.437 296.277 261.328C298.788 257.621 301.061 253.568 303.405 249.372C307.249 242.506 311.331 235.212 315.675 227.44C317.353 224.448 319.127 221.218 319.734 217.892C320.626 212.993 317.829 208.762 313.64 211.003C309.677 213.101 306.25 218.095 303.631 222.136Z" fill="#F6BC8C" stroke="#B5573E" stroke-width="0.6625" stroke-miterlimit="10" stroke-linecap="round" stroke-linejoin="round"/>
<path opacity="0.3" d="M317.593 211.338C317.069 210.956 316.486 210.766 315.843 210.766C315.212 210.766 314.534 210.956 313.82 211.338C313.57 211.469 313.332 211.612 313.094 211.767C312.594 214.365 311.892 216.916 311.226 219.479C310.119 223.722 309.345 228.025 308.786 232.376C308.441 235.034 308.191 237.704 307.977 240.374L315.331 227.239C316.926 224.39 318.735 221.148 319.342 217.81C319.842 215.069 319.14 212.458 317.593 211.338Z" fill="#E79974"/>
<path d="M368.834 221.669C369.989 223.505 370.989 225.221 371.726 226.496C374.987 232.075 377.998 237.677 380.628 243.291C383.009 248.405 385.436 253.876 386.65 258.965C387.257 261.504 387.805 264.806 386.603 266.522C385.567 268.012 383.389 267.953 381.533 266.749C379.438 265.39 377.796 263.006 376.344 260.658C373.845 256.593 371.607 252.267 369.346 247.88C365.728 240.871 361.991 233.648 358.147 226.21C356.695 223.409 355.184 220.429 354.696 217.414C353.982 213.039 356.386 209.356 359.956 211.37C363.396 213.289 366.442 217.878 368.834 221.669Z" fill="#F6BC8C" stroke="#B5573E" stroke-width="0.6625" stroke-miterlimit="10" stroke-linecap="round" stroke-linejoin="round"/>
<path opacity="0.3" d="M363.932 230.017C362.278 223.866 361.409 217.501 359.327 211.482C358.874 211.279 358.434 211.184 358.029 211.184C357.53 211.184 357.065 211.327 356.661 211.625C355.316 212.566 354.685 214.867 355.09 217.346C355.59 220.362 357.137 223.365 358.505 226.024L368.11 244.618C366.753 239.731 365.241 234.904 363.932 230.017Z" fill="#E79974"/>
<path d="M359.423 249.538C360.197 248.06 361.351 246.844 361.982 245.199C363.363 241.564 362.958 237.523 362.553 233.661C361.732 225.985 360.852 218.333 359.911 210.68C358.031 210.084 356.151 209.476 354.27 208.88C352.521 208.32 350.76 207.545 348.915 207.474C345.095 207.331 341.251 207.033 337.43 207.033C334.158 206.902 330.873 206.782 327.612 207.057C325.101 207.271 323.268 207.486 320.84 208.046C319.591 208.332 317.829 209.023 316.568 209.309C316.247 209.381 312.914 210.025 312.914 210.156C312.891 210.609 312.867 211.05 312.843 211.503C312.45 218.511 311.748 225.52 311.248 232.541C311.129 234.221 311.01 235.902 310.891 237.583C310.701 240.253 310.522 243.03 311.486 245.533C312.176 247.333 313.414 248.871 314.235 250.611C315.794 253.936 315.735 257.775 315.544 261.434C314.807 275.869 312.629 290.232 309.07 304.237C316.223 304.047 323.423 305.882 330.599 305.882C332.515 305.906 334.443 305.87 336.359 305.799C338.275 305.87 340.203 305.906 342.119 305.882C345.011 305.846 347.927 305.525 350.819 305.298C354.651 305 358.34 304.964 362.149 304.428C359.055 294.332 357.388 283.795 357.186 273.234C357.079 267.882 357.353 262.519 357.995 257.202C358.281 254.902 358.293 251.922 359.304 249.812C359.328 249.717 359.376 249.622 359.423 249.538Z" fill="#FDBB49"/>
<path d="M319.45 190.392C322.092 196.34 326.59 201.943 332.862 203.683C346.62 207.497 358.556 192.979 363.15 181.774C366.387 173.872 367.256 165.015 365.638 156.636C364.626 151.439 362.436 146.123 358.045 143.191C353.368 140.068 347.262 140.306 341.681 140.997C339.955 141.212 338.206 141.462 336.599 142.13C334.219 143.119 333.053 145.288 331.077 146.79C328.982 148.4 326.912 150.056 324.46 151.105C321.842 152.226 320.83 153.883 319.664 156.481C316.629 163.275 315.451 170.904 316.237 178.306C316.689 182.454 317.748 186.566 319.45 190.392Z" fill="#121B46"/>
<path d="M322.317 165.325C321.365 165.576 320.71 166.72 320.472 167.84C319.853 170.725 320.46 173.848 322.091 176.303C322.352 176.697 322.662 177.09 323.066 177.34C325.875 179.069 325.78 170.248 325.637 168.865C325.494 167.34 324.28 164.813 322.317 165.325Z" fill="#F6BC8C" stroke="#B5573E" stroke-width="0.6625" stroke-miterlimit="10" stroke-linecap="round" stroke-linejoin="round"/>
<path d="M321.534 216.261C321.796 218.848 321.558 223.723 324.534 224.557C326.557 225.129 328.746 225.106 330.829 225.201C333.792 225.332 336.756 225.368 339.719 225.308C342.647 225.249 345.634 225.213 348.538 224.843C351.584 224.45 352.584 222.936 352.858 219.885C353.084 217.429 352.763 214.95 352.965 212.495C353.06 211.374 353.251 210.111 353.227 208.895C350.18 207.739 346.931 206.296 346.36 203.376C345.812 200.587 345.574 197.726 345.646 194.877C345.693 193.173 346.943 189.537 345.194 188.584C343.635 187.737 340.624 188.059 338.874 187.916C337.446 187.797 336.018 187.69 334.578 187.571C332.376 187.368 328.663 186.212 328.842 189.43C329.092 193.852 329.687 197.869 328.925 202.315C328.699 203.603 328.33 205.236 327.283 206.153C327.152 206.273 326.997 206.38 326.842 206.475C325.902 207.023 324.355 207.274 323.296 207.643C322.558 207.906 321.82 208.168 321.07 208.43C321.13 211.04 321.261 213.651 321.534 216.261Z" fill="#F6BC8C" stroke="#B5573E" stroke-width="0.6625" stroke-miterlimit="10" stroke-linecap="round" stroke-linejoin="round"/>
<path opacity="0.3" d="M337.249 203.125C339.141 203.292 340.903 202.708 342.569 201.849C343.545 201.349 344.521 200.705 345.473 199.978C345.294 198.274 345.211 196.569 345.247 194.853C345.258 194.388 345.354 193.792 345.461 193.16C345.723 191.527 346.056 189.489 345.009 188.917C343.985 188.356 342.2 188.344 340.629 188.344C339.974 188.344 339.367 188.333 338.844 188.297L337.332 188.178C336.404 188.106 335.476 188.035 334.559 187.951C334.191 187.915 333.786 187.856 333.369 187.796C332.036 187.605 330.37 187.355 329.668 188.011C329.359 188.297 329.228 188.75 329.264 189.393C329.311 190.335 329.383 191.253 329.454 192.171C329.585 193.911 329.704 195.604 329.716 197.308C329.716 197.797 331.215 199.275 331.537 199.752C332.846 201.694 334.869 202.898 337.202 203.125C337.202 203.125 337.225 203.125 337.249 203.125Z" fill="#E79974"/>
<path d="M360.949 170.917C361.83 171.382 362.199 172.645 362.175 173.79C362.115 176.734 360.818 179.642 358.664 181.657C358.319 181.979 357.926 182.3 357.474 182.443C354.344 183.48 356.45 174.922 356.891 173.599C357.391 172.145 359.152 169.964 360.949 170.917Z" fill="#F6BC8C" stroke="#B5573E" stroke-width="0.6625" stroke-miterlimit="10" stroke-linecap="round" stroke-linejoin="round"/>
<path d="M358.064 172.18C358.385 168.127 358.076 164.003 356.969 160.165C355.815 156.16 353.589 152.369 350.245 149.902C346.889 147.435 342.343 146.445 338.439 147.864C335.488 148.936 333.132 151.249 331.251 153.764C325.372 161.607 323.98 171.417 325.11 180.965C325.61 185.184 326.836 189.475 329.288 192.991C331.216 195.769 334.024 198.022 337.452 198.51C337.987 198.582 338.535 198.617 339.082 198.606C342.938 198.534 346.401 196.377 349.043 193.683C352.971 189.678 355.624 184.314 356.981 178.902C357.505 176.733 357.886 174.468 358.064 172.18Z" fill="#F6BC8C" stroke="#B5573E" stroke-width="0.6625" stroke-miterlimit="10" stroke-linecap="round" stroke-linejoin="round"/>
<path d="M340.836 182.062C341.621 181.872 342.478 181.645 342.978 181.001C343.442 180.394 343.466 179.559 343.466 178.796C343.478 175.876 343.49 172.944 343.502 170.023" fill="#F6BC8C"/>
<path d="M340.836 182.062C341.621 181.872 342.478 181.645 342.978 181.001C343.442 180.394 343.466 179.559 343.466 178.796C343.478 175.876 343.49 172.944 343.502 170.023" stroke="#B5573E" stroke-width="0.6625" stroke-miterlimit="10" stroke-linecap="round" stroke-linejoin="round"/>
<path d="M332.956 174.873C334.967 174.849 334.932 171.715 332.92 171.738C330.909 171.774 330.945 174.897 332.956 174.873Z" fill="#121B46"/>
<path d="M350.401 176.436C352.412 176.4 352.364 173.277 350.353 173.301C348.33 173.337 348.378 176.472 350.401 176.436Z" fill="#121B46"/>
<path d="M329.958 166.435C330.756 166.471 331.577 165.982 332.374 165.887C333.433 165.755 334.326 166.113 335.349 166.304C335.611 166.351 335.861 166.03 335.635 165.815C334.766 165.016 333.445 164.897 332.326 165.04C331.493 165.148 330.22 165.481 329.934 166.387C329.922 166.411 329.934 166.423 329.958 166.435Z" fill="#121B46"/>
<path d="M354.306 167.641C354.021 166.735 352.747 166.401 351.914 166.294C350.784 166.151 349.463 166.27 348.606 167.069C348.38 167.284 348.618 167.605 348.891 167.558C349.915 167.355 350.796 167.009 351.867 167.14C352.676 167.236 353.485 167.736 354.283 167.689C354.295 167.689 354.306 167.665 354.306 167.641Z" fill="#121B46"/>
<path d="M361.53 163.157C362.398 158.568 363.803 154.658 362.529 149.891C361.375 145.516 358.185 141.797 354.115 139.878C351.866 138.817 349.902 137.673 347.391 137.172C344.773 136.66 342.048 136.672 339.453 137.244C337.073 137.78 334.788 138.793 332.824 140.26C331.848 140.987 330.861 141.988 330.123 142.965C329.921 143.239 328.254 146.696 328.576 146.708C326.184 146.601 323.958 148.198 322.72 150.26C321.483 152.31 321.078 154.754 320.876 157.15C320.876 161.19 320.495 165.088 321.102 169.129C321.697 173.086 323.137 176.71 324.636 180.393C324.886 175.256 325.589 170.13 326.755 165.124C327.005 164.063 327.124 162.609 327.683 161.667C328.123 160.928 329.004 160.189 329.623 159.605C332.289 157.054 336.371 155.457 337.585 151.798C341.905 156.721 347.344 160.642 353.365 163.205C354.425 163.658 355.543 164.087 356.269 164.969C357.126 166.006 357.281 167.448 357.34 168.795C357.459 171.537 357.329 174.29 356.96 177.02C357.091 176.066 357.959 174.85 358.34 173.944C358.804 172.812 359.233 171.68 359.614 170.524C360.423 168.104 361.065 165.648 361.53 163.157Z" fill="#121B46"/>
<path d="M340.095 145.933C342.642 149.545 345.736 152.716 349.271 155.362C351.056 156.709 352.948 157.913 354.924 158.962C356.828 159.975 359.006 160.988 361.136 161.381C361.35 161.417 361.517 161.119 361.291 161C360.315 160.487 359.256 160.106 358.256 159.629C357.328 159.188 356.399 158.711 355.471 158.246C353.519 157.245 351.639 156.101 349.854 154.825C346.272 152.263 343.094 149.164 340.393 145.695C340.262 145.528 339.964 145.755 340.095 145.933Z" fill="#3D4B7F"/>
<path d="M347.769 147.005C349.066 148.543 350.47 149.961 352.029 151.249C353.553 152.512 355.147 153.716 356.909 154.586C357.194 154.729 357.421 154.336 357.159 154.157C355.528 153.06 353.838 152.035 352.279 150.831C350.72 149.628 349.221 148.328 347.828 146.934C347.793 146.886 347.733 146.958 347.769 147.005Z" fill="#3D4B7F"/>
<path d="M334.012 141.977C335.095 141.333 336.095 140.559 337.226 139.986C338.404 139.39 339.642 138.914 340.939 138.604C343.557 137.984 346.187 138.091 348.805 138.604C348.996 138.64 349.079 138.377 348.889 138.306C346.354 137.412 343.509 137.459 340.915 138.067C338.451 138.651 335.56 139.843 333.953 141.906C333.929 141.941 333.965 142.001 334.012 141.977Z" fill="#3D4B7F"/>
<path d="M327.875 149.654C326.185 150.393 324.781 151.55 323.65 153.016C323.091 153.743 322.627 154.53 322.258 155.376C321.889 156.222 321.698 157.068 321.579 157.974C321.555 158.189 321.901 158.225 321.948 158.022C322.817 154.625 324.983 151.657 328.018 149.893C328.173 149.809 328.03 149.583 327.875 149.654Z" fill="#3D4B7F"/>
<path d="M319.139 166.399C317.389 175.876 319.841 185.888 325.803 193.469C325.875 193.564 326.029 193.433 325.97 193.35C320.365 185.662 317.865 175.852 319.163 166.411C319.151 166.399 319.139 166.388 319.139 166.399Z" fill="#3D4B7F"/>
<path d="M335.586 185.973C337.573 187.892 340.787 188.428 343.286 187.248Z" fill="#F6BC8C"/>
<path d="M335.572 185.983C336.512 187.116 337.833 187.831 339.273 188.081C339.987 188.212 340.725 188.224 341.451 188.141C342.094 188.057 343.034 187.938 343.486 187.426C343.641 187.259 343.546 186.961 343.296 186.961C342.963 186.961 342.665 187.116 342.356 187.211C342.046 187.307 341.737 187.378 341.427 187.438C340.749 187.557 340.047 187.557 339.368 187.473C338.024 187.307 336.703 186.758 335.608 185.948C335.572 185.936 335.548 185.972 335.572 185.983Z" fill="#B5573E"/>
<path d="M328.508 247.943C331.078 247.347 333.732 246.93 336.362 246.691C337.636 246.572 338.897 246.524 340.171 246.501C341.48 246.477 342.825 246.596 344.122 246.465C344.443 246.429 344.55 245.964 344.205 245.869C342.92 245.535 341.48 245.559 340.171 245.559C338.85 245.559 337.529 245.666 336.22 245.809C333.53 246.107 330.971 246.715 328.412 247.585C328.21 247.681 328.293 247.991 328.508 247.943Z" fill="#121B46"/>
<path d="M316.274 216.949C317.321 226.532 325.343 233.72 333.078 238.511C333.245 238.619 333.435 238.368 333.292 238.237C329.663 235.102 325.711 232.397 322.486 228.809C319.487 225.471 317.095 221.419 316.476 216.925C316.452 216.818 316.262 216.842 316.274 216.949Z" fill="#121B46"/>
<path d="M331.252 233.292C334.43 235.271 337.738 237.035 341.225 238.382C342.951 239.049 344.712 239.645 346.497 240.146C348.294 240.634 350.163 241.171 352.031 241.254C352.4 241.266 352.436 240.742 352.115 240.634C350.353 240.074 348.509 239.776 346.724 239.288C344.986 238.799 343.26 238.262 341.558 237.643C338.071 236.355 334.668 234.806 331.466 232.911C331.228 232.756 331.014 233.149 331.252 233.292Z" fill="#121B46"/>
<path d="M359.539 211.064C359.813 216.082 360.42 221.076 360.991 226.07C361.277 228.526 361.55 230.981 361.86 233.425C362.026 234.712 362.288 235.976 362.479 237.251C362.645 238.431 362.74 239.623 362.979 240.803C362.99 240.875 363.109 240.863 363.109 240.791C363.074 239.516 362.859 238.24 362.776 236.965C362.693 235.737 362.657 234.509 362.538 233.282C362.288 230.779 362.003 228.275 361.729 225.772C361.181 220.85 360.646 215.903 359.813 211.016C359.777 210.873 359.539 210.909 359.539 211.064Z" fill="#121B46"/>
<path d="M312.781 218.072C312.364 219.919 312.174 221.814 311.948 223.698C311.722 225.605 311.484 227.524 311.269 229.431C311.055 231.338 310.841 233.257 310.627 235.164C310.52 236.142 310.401 237.119 310.293 238.108C310.198 238.979 309.984 239.944 310.163 240.814C310.198 241.005 310.508 241.053 310.591 240.874C310.936 240.123 310.936 239.217 311.043 238.406C311.162 237.429 311.257 236.452 311.376 235.462C311.591 233.555 311.793 231.636 312.007 229.729C312.221 227.822 312.412 225.903 312.602 223.996C312.805 222.041 313.043 220.074 313.043 218.119C313.043 217.952 312.816 217.917 312.781 218.072Z" fill="#121B46"/>
<path d="M295.992 252.613C294.481 254.126 292.458 254.544 291.47 253.554C290.482 252.565 290.911 250.539 292.41 249.025C293.921 247.511 295.945 247.094 296.932 248.083C297.92 249.072 297.492 251.099 295.992 252.613Z" fill="#F6BC8C" stroke="#B5573E" stroke-width="0.7" stroke-miterlimit="10" stroke-linecap="round" stroke-linejoin="round"/>
<path d="M373.575 252.613C375.086 254.126 377.109 254.544 378.097 253.554C379.085 252.565 378.656 250.539 377.157 249.025C375.645 247.511 373.622 247.094 372.634 248.083C371.635 249.072 372.063 251.099 373.575 252.613Z" fill="#F6BC8C" stroke="#B5573E" stroke-width="0.7" stroke-miterlimit="10" stroke-linecap="round" stroke-linejoin="round"/>
<path d="M399.546 508.554C384.349 500.544 372.46 486.205 367.045 469.779C361.975 454.391 362.403 437.501 367.223 422.113C370.115 412.875 375.816 390.228 388.681 391.145C396.19 391.682 400.379 400.014 402.236 407.32C404.104 414.627 405.842 423.09 412.435 426.737C419.314 422.22 421.873 413.161 421.492 404.925C421.111 396.688 418.386 388.762 417.041 380.632C415.696 372.503 415.946 363.504 420.825 356.877C425.705 350.237 436.463 347.651 442.307 353.456C446.555 357.675 447.71 365.316 454.089 366.293C457.016 366.746 459.896 365.423 461.884 363.218C466.228 358.378 466.335 352.001 467.965 346.137C469.274 341.441 471.666 337.09 474.82 333.383C483.817 322.822 501.24 331.655 498.182 345.195C497.087 350.047 494.98 354.624 491.874 358.486C488.054 363.218 482.937 366.996 481.52 373.361C480.878 376.258 481.473 379.369 483.544 381.502C488.042 386.139 494.933 382.647 500.824 383.66C508.94 385.055 513.07 395.329 510.511 403.172C507.953 411.004 500.788 416.427 493.398 420.051C486.007 423.674 477.974 426.058 471.059 430.528C464.145 434.998 458.266 442.34 458.587 450.577C465.383 453.843 473.273 450.338 480.295 447.621C487.316 444.903 496.528 443.473 501.324 449.289C508.762 458.325 497.408 471.734 492.327 479.017C484.722 489.923 474.951 499.411 463.348 505.979C447.769 514.8 428.799 518.078 411.531 513.346C407.389 512.177 403.367 510.568 399.546 508.554Z" fill="#1264D3"/>
<path d="M480.512 351.228C479.025 353.684 477.501 356.103 475.954 358.523C474.419 360.943 472.824 363.339 471.361 365.794C468.433 370.729 465.481 375.628 462.613 380.598C456.841 390.563 451.224 400.599 445.797 410.755C440.394 420.863 435.182 431.078 430.064 441.329C424.947 451.592 420.02 461.938 415.164 472.332C410.285 482.761 405.524 493.251 400.883 503.788C400.312 505.075 399.752 506.362 399.181 507.65C398.693 508.758 398.86 510.045 399.978 510.713C400.918 511.261 402.549 511.023 403.037 509.914C407.619 499.401 412.308 488.936 417.104 478.518C421.924 468.065 426.863 457.647 431.921 447.301C436.955 436.99 442.06 426.727 447.213 416.476C452.367 406.225 457.579 395.998 462.828 385.795C465.47 380.646 468.135 375.509 470.801 370.371C472.098 367.868 473.408 365.365 474.669 362.85C475.978 360.239 477.216 357.581 478.608 355.019C479.287 353.779 479.953 352.551 480.631 351.312C480.679 351.216 480.56 351.145 480.512 351.228Z" fill="white"/>
<path d="M483.591 400.68C482.984 400.871 482.389 401.085 481.771 401.252C481.045 401.443 480.342 401.503 479.628 401.753C478.379 402.194 477.117 402.551 475.856 402.969C473.261 403.851 470.691 404.864 468.144 405.865C463.11 407.844 458.123 409.966 453.125 412.063C450.209 413.279 447.317 414.531 444.413 415.782C443.545 416.152 443.354 417.427 443.783 418.178C444.306 419.084 445.306 419.179 446.175 418.81C456.136 414.567 466.085 410.287 475.82 405.555C477.141 404.912 478.391 404.137 479.712 403.481C480.39 403.136 480.997 402.814 481.604 402.349C482.258 401.848 483.032 401.491 483.758 401.085C483.972 400.966 483.829 400.597 483.591 400.68Z" fill="white"/>
<path d="M431.712 378.833C432.378 381.789 432.89 384.757 433.509 387.725C434.128 390.693 434.83 393.637 435.413 396.605C436.567 402.565 437.543 408.572 438.424 414.579C438.924 418 439.352 421.433 439.781 424.854C439.864 425.534 440.304 426.13 441.054 426.13C441.685 426.13 442.411 425.546 442.327 424.854C441.613 418.716 440.59 412.613 439.424 406.546C438.841 403.53 438.091 400.538 437.377 397.558C436.663 394.578 435.96 391.575 435.139 388.619C434.211 385.293 432.997 382.051 431.867 378.797C431.807 378.725 431.7 378.761 431.712 378.833Z" fill="white"/>
<path d="M459.215 470.039C456.049 471.648 452.752 472.983 449.503 474.389C446.278 475.784 442.982 477.059 439.673 478.251C433.009 480.647 426.261 482.781 419.418 484.605C417.49 485.117 415.55 485.618 413.61 486.106C412.682 486.333 411.765 486.571 410.837 486.786C410.29 486.917 409.778 487.012 409.29 487.322C408.814 487.62 408.576 488.037 408.195 488.443C407.767 488.919 407.981 489.575 408.552 489.79C409.004 489.968 409.314 490.207 409.825 490.266C410.361 490.326 410.813 490.254 411.325 490.135C412.206 489.921 413.086 489.706 413.967 489.48C415.681 489.039 417.394 488.586 419.096 488.109C422.548 487.132 425.987 486.095 429.391 484.962C432.759 483.842 436.091 482.65 439.376 481.303C442.672 479.944 446.1 478.621 449.218 476.881C450.955 475.915 452.776 475.105 454.478 474.068C456.216 473.007 457.953 471.934 459.691 470.861C460.214 470.528 459.75 469.765 459.215 470.039Z" fill="white"/>
<path d="M387.147 427.419C388.349 431.162 389.801 434.797 391.277 438.433C392.027 440.292 392.788 442.14 393.538 443.999C394.276 445.847 395.109 447.646 395.835 449.506C398.715 456.896 402.095 464.084 405.403 471.283C406.308 473.262 407.224 475.24 408.129 477.219C408.581 478.208 409.105 479.15 409.628 480.104C409.914 480.628 410.223 481.117 410.58 481.605C410.961 482.118 411.402 482.511 411.842 482.976C412.592 483.763 414.258 483.215 414.139 482.023C414.032 480.998 413.972 480.044 413.627 479.055C413.282 478.042 412.901 477.028 412.473 476.039C411.687 474.227 410.818 472.439 409.985 470.651C408.331 467.063 406.677 463.464 404.987 459.888C403.297 456.312 401.571 452.76 399.774 449.244C398.882 447.491 397.953 445.751 397.073 443.975C396.204 442.223 395.359 440.399 394.395 438.695C393.324 436.811 392.336 434.88 391.337 432.961C390.289 430.959 389.111 429.004 387.933 427.085C387.683 426.692 386.993 426.942 387.147 427.419Z" fill="white"/>
<path d="M470.421 385.065C465.553 387.735 460.603 390.286 456.08 393.528C455.164 394.184 455.973 395.65 456.973 395.066C461.805 392.264 466.172 388.784 470.623 385.423C470.837 385.268 470.659 384.934 470.421 385.065Z" fill="white"/>
<path d="M458.325 373.646C458.67 376.161 458.778 378.7 459.087 381.227C459.242 382.431 459.385 383.634 459.539 384.826C459.634 385.589 459.92 387.425 461.063 387.163C462.169 386.912 461.777 385.029 461.622 384.278C461.396 383.086 461.158 381.894 460.932 380.702C460.456 378.235 459.777 375.827 459.325 373.348C459.218 372.692 458.242 372.99 458.325 373.646Z" fill="white"/>
<path d="M443.523 444.274C441.856 444.953 440.202 445.549 438.572 446.336C437.751 446.729 436.918 447.063 436.108 447.492C435.275 447.945 434.442 448.398 433.621 448.875C432.062 449.792 430.527 450.829 429.099 451.938C428.337 452.534 427.635 453.118 426.968 453.797C426.338 454.441 425.671 454.966 425.362 455.848C425.195 456.324 425.683 456.646 426.088 456.575C426.98 456.432 427.611 455.812 428.373 455.395C429.17 454.954 429.872 454.429 430.61 453.893C432.086 452.844 433.538 451.747 434.978 450.663C435.704 450.114 436.43 449.578 437.179 449.053C437.882 448.553 438.536 447.981 439.25 447.492C440.714 446.479 442.106 445.418 443.606 444.464C443.689 444.405 443.63 444.226 443.523 444.274Z" fill="white"/>
<path d="M426.333 423.304C426.369 424.198 426.345 425.044 426.309 425.926C426.273 426.832 426.464 427.786 426.535 428.692C426.571 429.133 426.523 429.562 426.559 430.003C426.595 430.444 426.666 430.873 426.726 431.314C426.845 432.232 426.952 433.162 427.071 434.08C427.285 435.844 427.547 437.608 427.821 439.372C428.082 441.053 428.094 443.198 429.32 444.521C429.629 444.855 430.32 444.807 430.522 444.366C431.26 442.733 430.665 440.802 430.379 439.122C430.082 437.334 429.772 435.546 429.415 433.77C429.237 432.911 429.07 432.041 428.892 431.183C428.713 430.301 428.487 429.479 428.249 428.62C427.999 427.726 427.856 426.809 427.594 425.915C427.463 425.485 427.237 425.104 427.106 424.687C426.964 424.222 426.845 423.745 426.714 423.28C426.654 423.042 426.321 423.078 426.333 423.304Z" fill="white"/>
<path d="M400.464 514.929C393.347 504.606 390.491 491.316 392.538 478.872C394.454 467.215 400.428 456.439 408.735 448.119C413.721 443.125 425.039 430.419 433.06 435.365C437.737 438.25 437.63 445.056 436.369 450.408C435.107 455.76 433.382 461.827 436.405 466.404C442.379 465.808 447.08 460.826 449.615 455.378C452.15 449.931 453.066 443.876 454.934 438.166C456.815 432.457 460.004 426.724 465.395 424.089C470.787 421.455 478.617 423.422 480.438 429.143C481.759 433.303 479.927 438.643 483.723 441.432C485.472 442.72 487.769 442.839 489.804 442.088C494.243 440.431 496.469 436.343 499.492 433.101C501.92 430.502 504.942 428.5 508.227 427.177C517.605 423.398 525.888 434.996 519.343 442.72C516.998 445.485 514.094 447.738 510.786 449.168C506.728 450.932 502.134 451.648 499.075 455.271C497.683 456.928 497.016 459.145 497.635 461.219C498.98 465.737 504.609 465.808 508.072 468.454C512.845 472.102 512.047 480.147 507.751 484.343C503.455 488.539 496.993 489.623 490.994 489.457C484.996 489.302 478.998 488.122 473.024 488.67C467.05 489.218 460.766 491.984 458.195 497.407C461.48 501.817 467.764 502.223 473.226 502.842C478.689 503.462 485.115 505.655 486.258 511.031C488.019 519.387 476.154 524.214 470.418 527.206C461.825 531.676 452.304 534.501 442.593 534.823C429.55 535.252 416.185 530.949 406.616 522.045C404.308 519.923 402.249 517.527 400.464 514.929Z" fill="#57A5FA"/>
<path d="M505.869 440.645C502.251 442.839 498.502 444.829 494.896 447.058C491.374 449.239 487.839 451.385 484.34 453.602C477.259 458.084 470.249 462.661 463.323 467.393C449.47 476.845 435.939 486.762 422.61 496.942C415.088 502.687 407.626 508.528 400.248 514.452C399.557 515 399.676 516.18 400.248 516.752C400.926 517.432 401.866 517.301 402.544 516.752C415.505 506.311 428.679 496.143 442.068 486.262C455.504 476.357 469.083 466.63 482.733 457.011C486.589 454.293 490.445 451.564 494.325 448.882C498.205 446.188 501.977 443.339 505.917 440.729C505.976 440.693 505.928 440.61 505.869 440.645Z" fill="white"/>
<path d="M491.176 473.653C489.926 473.426 488.736 473.081 487.475 472.902C486.237 472.723 485.023 472.473 483.774 472.318C481.227 471.996 478.68 471.674 476.121 471.436C471.028 470.959 465.922 470.554 460.817 470.16C459.174 470.041 459.198 472.58 460.817 472.711C465.863 473.116 470.921 473.486 475.978 473.832C478.478 473.998 480.977 474.082 483.488 474.153C484.761 474.189 486.035 474.13 487.32 474.153C488.605 474.177 489.855 474.01 491.152 473.987C491.319 473.963 491.366 473.689 491.176 473.653Z" fill="white"/>
<path d="M465.015 441.98C464.289 444.733 463.396 447.427 462.67 450.181C461.944 452.946 461.147 455.687 460.266 458.405C458.481 463.852 456.624 469.264 454.625 474.64C454.209 475.76 455.994 476.237 456.41 475.128C458.445 469.788 460.23 464.317 461.635 458.787C462.337 456.021 463.039 453.244 463.682 450.467C464.324 447.677 464.681 444.841 465.11 442.004C465.11 441.944 465.027 441.92 465.015 441.98Z" fill="white"/>
<path d="M452.042 510.233C449.448 510.198 446.853 509.959 444.271 509.757C441.676 509.554 439.07 509.28 436.499 508.922C431.406 508.219 426.348 507.313 421.338 506.181C419.933 505.859 418.529 505.537 417.125 505.191C416.422 505.025 415.72 504.846 415.03 504.679C414.637 504.584 414.28 504.5 413.864 504.536C413.495 504.572 413.209 504.75 412.876 504.87C412.447 505.024 412.317 505.501 412.614 505.847C413.042 506.324 413.316 506.717 413.959 506.932C414.602 507.134 415.268 507.265 415.923 507.42C417.232 507.73 418.541 508.04 419.862 508.314C422.409 508.851 424.967 509.339 427.526 509.757C430.132 510.186 432.751 510.555 435.381 510.805C437.939 511.044 440.546 511.306 443.128 511.294C444.568 511.282 446.008 511.354 447.448 511.258C448.983 511.151 450.519 511.044 452.054 510.937C452.471 510.889 452.482 510.233 452.042 510.233Z" fill="white"/>
<path d="M419.823 458.274C418.859 463.936 418.479 469.693 417.979 475.415C417.729 478.287 417.455 481.136 417.277 484.021C417.11 486.941 416.955 489.85 416.812 492.77C416.729 494.355 416.658 495.929 416.574 497.514C416.527 498.36 416.551 499.195 416.574 500.041C416.598 500.923 416.777 501.686 417.027 502.532C417.312 503.533 418.574 503.39 418.919 502.532C419.193 501.841 419.431 501.233 419.526 500.494C419.621 499.755 419.74 499.016 419.788 498.265C419.907 496.834 419.93 495.392 420.002 493.962C420.145 491.089 420.287 488.228 420.395 485.356C420.502 482.495 420.621 479.622 420.621 476.75C420.621 473.889 420.764 471.005 420.704 468.144C420.621 464.878 420.68 461.612 420.442 458.358C420.406 458.036 419.883 457.905 419.823 458.274Z" fill="white"/>
<path d="M487.929 459.098C483.823 459.169 479.729 459.169 475.659 459.741C474.933 459.849 475.111 461.053 475.837 461.017C479.931 460.838 483.954 460.075 487.976 459.396C488.143 459.372 488.107 459.098 487.929 459.098Z" fill="white"/>
<path d="M483.97 447.606C483.351 449.335 482.566 451.003 481.923 452.72C481.626 453.518 481.328 454.329 481.031 455.127C480.84 455.64 480.305 457.035 481.15 457.285C481.983 457.535 482.375 456.081 482.53 455.545C482.78 454.722 483.018 453.912 483.268 453.089C483.792 451.337 484.16 449.549 484.708 447.797C484.851 447.332 484.125 447.153 483.97 447.606Z" fill="white"/>
<path d="M450.542 488.262C447.828 488 445.151 487.726 442.413 487.905C441.08 487.988 439.736 488.143 438.427 488.382C437.26 488.596 435.88 488.846 434.928 489.597C434.666 489.8 434.832 490.253 435.118 490.324C436.308 490.622 437.712 490.301 438.903 490.134C440.152 489.955 441.39 489.752 442.628 489.562C445.258 489.156 447.888 488.644 450.542 488.429C450.649 488.405 450.649 488.262 450.542 488.262Z" fill="white"/>
<path d="M446.532 468.884C446.246 469.492 445.925 470.041 445.604 470.625C445.294 471.197 445.116 471.864 444.83 472.46C444.271 473.64 443.818 474.868 443.354 476.096C442.878 477.359 442.438 478.623 442.01 479.898C441.605 481.102 441.046 482.282 441.284 483.569C441.367 484.01 441.938 484.082 442.224 483.82C443.176 482.938 443.438 481.591 443.83 480.399C444.235 479.171 444.628 477.943 444.985 476.692C445.354 475.44 445.723 474.212 445.984 472.937C446.115 472.282 446.365 471.638 446.472 470.982C446.579 470.315 446.651 469.647 446.794 468.98C446.817 468.849 446.603 468.741 446.532 468.884Z" fill="white"/>
<path d="M473.036 488.836C472.464 484.485 471.834 480.158 470.977 475.855C470.191 471.874 469.299 467.905 468.299 463.948L468.109 463.197C466.585 457.201 464.836 451.253 462.884 445.389L462.646 444.685C460.623 438.666 458.374 432.718 455.934 426.889C454.161 422.646 452.387 417.997 449.626 414.267C447.591 411.513 444.342 412.3 441.772 413.849C441.546 413.98 441.331 414.124 441.117 414.267L441.498 414.863C443.962 418.713 445.592 423.194 447.27 427.426C449.555 433.135 451.673 438.916 453.72 444.721C455.077 448.583 456.481 452.445 457.612 456.379C459.445 462.696 460.956 469.133 462.396 475.557C464.027 482.816 465.693 490.183 466.419 497.609L466.502 498.431C467.192 498.574 467.883 498.681 468.561 498.693C469.692 498.729 470.834 498.443 471.679 497.644C473.964 495.499 473.393 491.565 473.036 488.836Z" fill="#121B46"/>
<path d="M466.441 497.596C465.715 490.17 464.049 482.804 462.418 475.545C460.978 469.12 459.467 462.683 457.634 456.366C456.492 452.433 455.099 448.571 453.742 444.709C451.696 438.904 449.577 433.123 447.292 427.413C445.602 423.194 443.984 418.7 441.52 414.85L441.139 414.254C438.343 416.09 436.046 418.605 433.749 421.012C422.3 432.944 410.387 444.947 395.808 453.04C393.976 454.054 392.107 454.995 390.203 455.853L390.394 456.569C393 467.141 396.011 477.595 399.105 488.037L399.319 488.74C408.209 487.56 417.195 487.143 426.108 488.263C433.999 489.252 441.651 491.422 449.268 493.615C453.647 494.878 458.015 496.142 462.43 497.31C463.763 497.668 465.144 498.132 466.536 498.43L466.441 497.596Z" fill="#FDBB49"/>
<path d="M399.094 488.027C395.999 477.597 392.988 467.132 390.382 456.559L390.192 455.844C390.073 455.891 389.966 455.951 389.847 455.999C383.36 457.548 376.91 459.193 370.472 460.945C368.127 461.589 365.164 461.982 363.248 463.627C361.32 465.272 361.451 467.906 361.582 470.219C361.879 475.523 363.355 480.744 365.806 485.44C367.068 487.848 368.591 490.125 370.353 492.199C370.983 492.938 371.638 493.796 372.65 493.998C373.887 494.249 375.399 493.748 376.601 493.546C376.624 493.546 376.648 493.534 376.684 493.534L377.41 493.403C382.837 492.449 388.24 491.317 393.595 490.017L394.309 489.85C395.607 489.529 396.892 489.207 398.177 488.861C398.558 488.813 398.939 488.754 399.32 488.706L399.094 488.027Z" fill="#121B46"/>
<path d="M474.918 449.894C475.835 452.326 476.989 455.365 475.573 457.821C474.097 460.384 470.622 461.528 468.278 463.113C468.242 463.137 468.159 463.185 468.123 463.22C466.6 457.225 464.85 451.277 462.898 445.413C465.1 445.21 467.302 444.912 469.515 444.876C470.598 444.864 471.562 444.817 472.395 445.579C473.645 446.736 474.335 448.321 474.918 449.894Z" fill="#FDBB49"/>
<path d="M380.684 466.332C379.411 464.747 375.674 466.547 374.293 467C372.972 467.381 370.985 467.774 370.033 468.895C369.378 469.658 369.592 470.862 370.699 471.017C371.294 471.1 372.032 470.826 372.603 470.707C373.865 470.421 375.126 470.099 376.364 469.729C377.268 469.443 382.136 468.132 380.684 466.332Z" fill="#FDBB49"/>
<path d="M376.611 472.196C375.254 472.649 373.838 472.983 372.505 473.531C371.767 473.841 371.196 474.163 371.124 475.021C370.922 477.596 375.052 475.915 376.182 475.57C377.587 475.152 379.027 474.711 380.383 474.163C381.145 473.865 382.061 473.424 382.24 472.53C382.787 469.824 377.468 471.898 376.611 472.196Z" fill="#FDBB49"/>
<path d="M404.929 509.229C400.073 503.626 396.931 496.725 394.289 489.871L393.575 490.038C388.22 491.349 382.817 492.482 377.39 493.423L376.664 493.554C378.175 498.513 379.865 503.352 382.127 508.013C384.269 512.447 386.232 516.917 389.089 520.958C390.231 522.579 391.326 524.092 393.563 523.747C396.372 523.306 398.788 521.101 401.192 519.718C403.072 518.633 405.762 517.405 406.916 515.451C408.368 513.007 406.44 510.969 404.929 509.229Z" fill="#FDBB49"/>
<path d="M270.836 508.554C286.034 500.544 297.923 486.205 303.338 469.779C308.408 454.391 307.979 437.501 303.159 422.113C300.268 412.875 294.567 390.228 281.702 391.145C274.192 391.682 270.003 400.014 268.147 407.32C266.29 414.627 264.541 423.09 257.948 426.737C251.069 422.22 248.51 413.161 248.891 404.925C249.272 396.688 251.997 388.762 253.342 380.632C254.687 372.503 254.437 363.504 249.557 356.877C244.678 350.237 233.919 347.651 228.076 353.456C223.827 357.675 222.673 365.316 216.294 366.293C213.366 366.746 210.486 365.423 208.499 363.218C204.155 358.378 204.048 352.001 202.418 346.137C201.108 341.441 198.716 337.09 195.563 333.383C186.565 322.822 169.142 331.655 172.201 345.195C173.296 350.047 175.402 354.624 178.508 358.486C182.329 363.218 187.446 366.996 188.862 373.361C189.505 376.258 188.898 379.369 186.839 381.502C182.341 386.139 175.45 382.647 169.559 383.66C161.442 385.055 157.313 395.329 159.871 403.172C162.43 411.004 169.595 416.427 176.985 420.051C184.376 423.674 192.409 426.058 199.323 430.528C206.238 434.998 212.117 442.34 211.795 450.577C205 453.843 197.11 450.338 190.088 447.621C183.066 444.903 173.855 443.473 169.059 449.289C161.621 458.325 172.974 471.734 178.056 479.017C185.661 489.923 195.432 499.411 207.035 505.979C222.613 514.8 241.584 518.078 258.852 513.346C263.005 512.177 267.028 510.568 270.836 508.554Z" fill="#1264D3"/>
<path d="M189.753 351.298C191.134 353.825 192.443 356.364 193.74 358.927C195.037 361.49 196.275 364.088 197.62 366.627C200.309 371.693 202.916 376.806 205.558 381.908C210.854 392.147 216.066 402.422 221.267 412.708C226.444 422.947 231.585 433.198 236.607 443.509C241.63 453.819 246.604 464.153 251.436 474.547C256.292 484.989 261.028 495.49 265.658 506.039C266.229 507.326 266.788 508.626 267.348 509.913C267.824 511.021 269.442 511.272 270.406 510.712C271.549 510.044 271.691 508.769 271.204 507.648C266.598 497.147 261.885 486.694 257.065 476.288C252.221 465.846 247.259 455.452 242.189 445.106C237.143 434.819 231.954 424.592 226.575 414.461C221.196 404.329 215.673 394.304 209.961 384.363C207.081 379.345 204.153 374.363 201.19 369.404C199.738 366.985 198.286 364.577 196.787 362.193C195.228 359.726 193.573 357.318 192.074 354.815C191.348 353.611 190.622 352.407 189.896 351.191C189.825 351.143 189.706 351.215 189.753 351.298Z" fill="white"/>
<path d="M186.626 401.087C187.185 401.397 187.756 401.671 188.292 402.005C188.934 402.398 189.458 402.863 190.137 403.208C191.327 403.804 192.457 404.472 193.623 405.092C196.016 406.343 198.467 407.476 200.919 408.608C205.834 410.885 210.809 413.018 215.771 415.188C218.568 416.415 221.389 417.607 224.197 418.799C225.066 419.169 226.066 419.061 226.589 418.168C227.018 417.429 226.839 416.153 225.959 415.772C215.914 411.457 205.87 407.166 195.623 403.363C194.195 402.839 192.731 402.446 191.303 401.933C190.541 401.659 189.839 401.468 189.042 401.325C188.28 401.194 187.53 400.896 186.792 400.67C186.566 400.598 186.411 400.956 186.626 401.087Z" fill="white"/>
<path d="M238.546 378.809C237.546 381.706 236.463 384.59 235.595 387.534C234.726 390.478 234.036 393.47 233.298 396.45C231.834 402.434 230.549 408.429 229.549 414.52C228.978 417.953 228.466 421.41 228.061 424.867C227.978 425.546 228.704 426.142 229.335 426.142C230.096 426.142 230.525 425.558 230.608 424.867C231.358 418.847 232.179 412.852 233.202 406.88C233.714 403.888 234.166 400.884 234.726 397.892C235.285 394.913 235.964 391.968 236.606 389.012C237.344 385.627 237.903 382.23 238.665 378.845C238.689 378.762 238.57 378.726 238.546 378.809Z" fill="white"/>
<path d="M210.693 470.853C213.74 472.736 216.751 474.631 219.952 476.253C223.165 477.874 226.426 479.364 229.747 480.758C236.328 483.523 243.123 485.741 249.978 487.719C251.894 488.267 253.822 488.792 255.762 489.293C256.726 489.543 257.702 489.781 258.666 490.02C259.213 490.151 259.737 490.318 260.296 490.282C260.891 490.246 261.296 489.984 261.832 489.781C262.403 489.567 262.617 488.911 262.189 488.434C261.879 488.101 261.701 487.731 261.32 487.457C260.891 487.159 260.463 487.004 259.951 486.873C259.071 486.658 258.19 486.444 257.309 486.229C255.631 485.812 253.965 485.383 252.299 484.942C248.871 484.048 245.456 483.082 242.076 482.045C238.696 480.997 235.34 479.864 232.008 478.696C228.675 477.528 225.45 476.109 222.142 474.894C220.285 474.202 218.512 473.296 216.679 472.557C214.799 471.795 212.978 470.948 211.169 470.03C210.633 469.768 210.181 470.531 210.693 470.853Z" fill="white"/>
<path d="M282.455 427.083C278.314 433.793 274.97 440.957 271.328 447.954C267.674 454.963 264.342 462.126 261.022 469.302C260.105 471.28 259.201 473.247 258.285 475.226C257.785 476.299 257.38 477.395 256.963 478.492C256.761 479.052 256.571 479.588 256.44 480.173C256.309 480.78 256.309 481.388 256.249 482.008C256.119 483.188 257.797 483.748 258.546 482.962C259.26 482.211 259.939 481.508 260.462 480.614C260.962 479.767 261.45 478.897 261.879 478.015C262.747 476.239 263.533 474.415 264.354 472.627C266.008 469.028 267.674 465.44 269.293 461.828C270.947 458.145 272.554 454.45 274.101 450.719C274.839 448.943 275.541 447.155 276.291 445.391C277.076 443.544 277.921 441.696 278.611 439.813C280.135 435.677 281.872 431.624 283.229 427.416C283.396 426.939 282.705 426.677 282.455 427.083Z" fill="white"/>
<path d="M199.76 385.423C204.211 388.784 208.579 392.253 213.41 395.066C214.422 395.65 215.219 394.184 214.303 393.528C209.781 390.286 204.83 387.735 199.962 385.065C199.724 384.934 199.546 385.268 199.76 385.423Z" fill="white"/>
<path d="M211.05 373.36C210.598 375.828 209.92 378.247 209.444 380.715C209.217 381.906 208.979 383.098 208.753 384.29C208.61 385.041 208.206 386.937 209.313 387.175C210.455 387.425 210.741 385.59 210.836 384.839C210.991 383.635 211.133 382.431 211.288 381.239C211.61 378.712 211.717 376.173 212.05 373.658C212.157 372.991 211.181 372.693 211.05 373.36Z" fill="white"/>
<path d="M226.79 444.464C228.254 445.394 229.61 446.431 231.027 447.42C231.776 447.945 232.467 448.529 233.205 449.065C233.942 449.59 234.68 450.126 235.406 450.674C236.811 451.735 238.239 452.808 239.667 453.821C240.405 454.346 241.119 454.93 241.916 455.347C242.713 455.764 243.38 456.432 244.296 456.575C244.701 456.634 245.189 456.312 245.022 455.848C244.737 455.025 244.118 454.489 243.511 453.893C243.154 453.535 242.856 453.178 242.452 452.856C242.095 452.57 241.749 452.296 241.392 452.021C239.929 450.877 238.358 449.816 236.763 448.875C235.977 448.422 235.192 447.981 234.395 447.552C233.585 447.11 232.752 446.789 231.931 446.395C230.265 445.585 228.575 444.965 226.861 444.274C226.754 444.226 226.695 444.405 226.79 444.464Z" fill="white"/>
<path d="M243.678 423.247C243.44 424.106 243.142 424.916 242.821 425.751C242.5 426.597 242.381 427.574 242.166 428.456C242.059 428.885 241.881 429.291 241.786 429.72C241.678 430.149 241.607 430.59 241.524 431.019C241.345 431.925 241.155 432.843 240.976 433.749C240.631 435.477 240.334 437.217 240.036 438.958C239.751 440.674 239.12 442.676 239.87 444.345C240.072 444.798 240.762 444.834 241.072 444.5C242.262 443.213 242.285 441.151 242.547 439.506C242.833 437.694 243.095 435.894 243.321 434.07C243.428 433.2 243.535 432.33 243.642 431.448C243.749 430.566 243.797 429.72 243.833 428.826C243.88 427.908 244.047 426.978 244.059 426.06C244.059 425.619 243.975 425.19 243.975 424.749C243.987 424.261 244.023 423.784 244.035 423.295C244.071 423.081 243.737 423.045 243.678 423.247Z" fill="white"/>
<path d="M269.933 514.929C277.05 504.606 279.906 491.316 277.859 478.872C275.943 467.215 269.969 456.439 261.662 448.119C256.676 443.125 245.358 430.419 237.337 435.365C232.659 438.25 232.767 445.056 234.028 450.408C235.29 455.76 237.015 461.827 233.992 466.404C228.018 465.808 223.317 460.826 220.782 455.378C218.247 449.931 217.331 443.876 215.463 438.166C213.582 432.457 210.393 426.724 205.002 424.089C199.61 421.455 191.78 423.422 189.959 429.143C188.638 433.303 190.47 438.643 186.674 441.432C184.925 442.72 182.628 442.839 180.593 442.088C176.154 440.431 173.928 436.343 170.905 433.101C168.477 430.502 165.455 428.5 162.17 427.177C152.792 423.398 144.509 434.996 151.054 442.72C153.399 445.485 156.303 447.738 159.611 449.168C163.669 450.932 168.263 451.648 171.322 455.271C172.714 456.928 173.381 459.145 172.762 461.219C171.417 465.737 165.788 465.808 162.325 468.454C157.552 472.102 158.35 480.147 162.646 484.343C166.942 488.539 173.404 489.623 179.403 489.457C185.401 489.302 191.399 488.122 197.373 488.67C203.347 489.218 209.631 491.984 212.202 497.407C208.917 501.817 202.633 502.223 197.171 502.842C191.708 503.462 185.282 505.655 184.139 511.031C182.378 519.387 194.243 524.214 199.979 527.206C208.572 531.676 218.093 534.501 227.804 534.823C240.847 535.252 254.212 530.949 263.781 522.045C266.089 519.923 268.136 517.527 269.933 514.929Z" fill="#57A5FA"/>
<path d="M164.465 440.728C168.012 443.089 171.38 445.675 174.89 448.083C178.318 450.431 181.698 452.839 185.101 455.223C191.897 459.991 198.668 464.818 205.416 469.646C218.995 479.348 232.467 489.194 245.713 499.349C253.163 505.059 260.53 510.864 267.837 516.752C268.515 517.3 269.468 517.419 270.134 516.752C270.705 516.18 270.824 515 270.134 514.451C257.019 503.926 243.678 493.676 230.123 483.723C216.603 473.805 202.81 464.282 188.672 455.27C184.697 452.743 180.698 450.264 176.687 447.797C172.677 445.329 168.535 443.077 164.513 440.633C164.465 440.609 164.417 440.693 164.465 440.728Z" fill="white"/>
<path d="M179.255 473.96C180.54 473.984 181.789 474.151 183.087 474.127C184.36 474.103 185.633 474.175 186.919 474.127C189.418 474.055 191.929 473.972 194.428 473.805C199.486 473.459 204.532 473.09 209.59 472.685C211.209 472.553 211.233 470.003 209.59 470.134C204.485 470.527 199.379 470.92 194.286 471.409C191.727 471.648 189.18 471.969 186.633 472.291C185.395 472.446 184.17 472.708 182.932 472.875C181.67 473.054 180.48 473.4 179.231 473.626C179.017 473.686 179.076 473.96 179.255 473.96Z" fill="white"/>
<path d="M205.29 442.004C205.719 444.841 206.076 447.665 206.718 450.467C207.361 453.256 208.051 456.021 208.765 458.787C210.17 464.317 211.955 469.8 213.99 475.128C214.406 476.237 216.203 475.76 215.775 474.64C213.776 469.264 211.919 463.852 210.134 458.405C209.241 455.687 208.456 452.946 207.73 450.181C207.004 447.427 206.111 444.733 205.385 441.98C205.362 441.92 205.278 441.944 205.29 442.004Z" fill="white"/>
<path d="M218.352 510.924C220.994 511.115 223.612 511.317 226.266 511.282C228.86 511.246 231.431 511.103 234.014 510.888C239.238 510.435 244.415 509.565 249.556 508.504C250.973 508.218 252.377 507.908 253.781 507.575C254.531 507.396 255.281 507.229 256.019 507.038C256.352 506.955 256.685 506.871 256.983 506.692C257.34 506.478 257.518 506.156 257.792 505.858C258.101 505.512 257.958 505.036 257.53 504.881C256.911 504.654 256.471 504.452 255.792 504.595C255.138 504.726 254.483 504.916 253.829 505.071C252.567 505.381 251.306 505.679 250.044 505.965C247.509 506.549 244.974 507.086 242.416 507.563C239.917 508.027 237.405 508.421 234.882 508.79C232.312 509.172 229.729 509.374 227.159 509.672C225.719 509.839 224.255 509.875 222.803 510.006C221.315 510.149 219.84 510.221 218.34 510.245C217.9 510.233 217.912 510.888 218.352 510.924Z" fill="white"/>
<path d="M249.951 458.36C249.534 464.093 249.784 469.827 249.796 475.56C249.808 481.305 250.058 487.027 250.332 492.76C250.403 494.345 250.486 495.919 250.558 497.504C250.593 498.35 250.701 499.185 250.808 500.031C250.927 500.937 251.141 501.676 251.474 502.522C251.807 503.38 253.081 503.523 253.366 502.522C253.569 501.831 253.735 501.199 253.795 500.484C253.854 499.757 253.854 498.994 253.842 498.255C253.819 496.825 253.7 495.382 253.628 493.952C253.485 491.032 253.343 488.111 253.176 485.203C253.009 482.33 252.843 479.458 252.557 476.597C252.26 473.7 252.164 470.744 251.772 467.86C251.343 464.665 251.117 461.447 250.582 458.265C250.51 457.907 249.975 458.026 249.951 458.36Z" fill="white"/>
<path d="M182.425 459.396C186.459 460.063 190.47 460.826 194.564 461.017C195.278 461.053 195.468 459.837 194.742 459.741C190.672 459.169 186.566 459.181 182.473 459.098C182.294 459.098 182.246 459.372 182.425 459.396Z" fill="white"/>
<path d="M185.683 447.809C186.218 449.562 186.599 451.35 187.123 453.102C187.373 453.924 187.611 454.735 187.861 455.557C188.015 456.094 188.408 457.548 189.241 457.297C190.086 457.047 189.563 455.653 189.36 455.14C189.063 454.341 188.765 453.531 188.468 452.732C187.825 451.004 187.04 449.347 186.421 447.619C186.254 447.154 185.54 447.333 185.683 447.809Z" fill="white"/>
<path d="M219.845 488.405C222.499 488.631 225.117 489.144 227.759 489.537C228.997 489.728 230.246 489.931 231.484 490.11C232.674 490.276 234.09 490.598 235.269 490.3C235.554 490.229 235.721 489.776 235.459 489.573C234.495 488.822 233.138 488.572 231.96 488.357C230.651 488.119 229.306 487.964 227.973 487.881C225.236 487.714 222.558 487.976 219.845 488.238C219.75 488.262 219.75 488.405 219.845 488.405Z" fill="white"/>
<path d="M223.598 468.992C223.741 469.659 223.812 470.315 223.919 470.994C224.014 471.65 224.264 472.293 224.407 472.949C224.669 474.224 225.038 475.452 225.407 476.704C225.764 477.943 226.168 479.183 226.561 480.411C226.954 481.603 227.204 482.95 228.168 483.832C228.453 484.094 229.025 484.022 229.108 483.581C229.346 482.282 228.798 481.102 228.382 479.91C227.954 478.635 227.513 477.371 227.037 476.108C226.573 474.88 226.121 473.664 225.561 472.472C225.288 471.876 225.097 471.221 224.788 470.637C224.478 470.053 224.145 469.492 223.86 468.896C223.776 468.741 223.562 468.849 223.598 468.992Z" fill="white"/>
<path d="M400.576 525.076H270.403C267.142 525.076 264.5 522.429 264.5 519.163V256.705C264.5 253.439 267.142 250.793 270.403 250.793H400.576C403.837 250.793 406.479 253.439 406.479 256.705V519.163C406.479 522.429 403.837 525.076 400.576 525.076Z" fill="#121B46"/>
<path d="M345.809 516.911H325.172C322.625 516.911 320.555 514.837 320.555 512.286V510.582C320.555 508.031 322.625 505.957 325.172 505.957H345.809C348.355 505.957 350.426 508.031 350.426 510.582V512.286C350.414 514.837 348.355 516.911 345.809 516.911Z" fill="white"/>
<path d="M335.491 258.42C336.872 258.42 337.991 257.3 337.991 255.917C337.991 254.535 336.872 253.414 335.491 253.414C334.111 253.414 332.992 254.535 332.992 255.917C332.992 257.3 334.111 258.42 335.491 258.42Z" fill="white"/>
<path d="M403.203 262.926H267.758V499.483H403.203V262.926Z" fill="#1264D3"/>
<path d="M402.406 320.891V337.948L419.437 320.891H402.406Z" fill="white"/>
<path d="M393.484 324.228H565.18L565.287 275.453H393.484V324.228Z" fill="white"/>
<path d="M472.935 312.598H422.617V317.222H472.935V312.598Z" fill="#CACACA"/>
<path d="M418.787 314.934C418.787 318.128 416.192 320.726 413.003 320.726C409.813 320.726 407.219 318.128 407.219 314.934C407.219 311.739 409.813 309.141 413.003 309.141C416.192 309.141 418.787 311.739 418.787 314.934Z" fill="#979797"/>
<path d="M472.949 301.082H408.445V305.707H472.949V301.082Z" fill="#CACACA"/>
<path d="M489.479 290.129H408.445V295.731H489.479V290.129Z" fill="#979797"/>
<path d="M532.107 290.129H491.68V295.731H532.107V290.129Z" fill="#1264D3"/>
<path d="M551.557 290.129H534.312V295.731H551.557V290.129Z" fill="#CACACA"/>
<path d="M445.91 283.453H408.445V288.078H445.91V283.453Z" fill="#CACACA"/>
<path d="M304.528 194.578V211.361L287.367 194.578H304.528Z" fill="white"/>
<path d="M140.391 197.867H313.419L313.526 149.891H140.391V197.867Z" fill="white"/>
<path d="M220.46 186.426H169.75V190.979H220.46V186.426Z" fill="#CACACA"/>
<path d="M165.882 188.725C165.882 191.872 163.275 194.422 160.05 194.422C156.825 194.422 154.219 191.872 154.219 188.725C154.219 185.578 156.825 183.027 160.05 183.027C163.275 183.027 165.882 185.578 165.882 188.725Z" fill="#979797"/>
<path d="M220.472 175.102H155.469V179.655H220.472V175.102Z" fill="#CACACA"/>
<path d="M237.122 164.328H155.469V169.835H237.122V164.328Z" fill="#979797"/>
<path d="M280.081 164.328H239.344V169.835H280.081V164.328Z" fill="#1264D3"/>
<path d="M299.688 164.328H282.312V169.835H299.688V164.328Z" fill="#CACACA"/>
<path d="M193.219 157.758H155.469V162.311H193.219V157.758Z" fill="#CACACA"/>
<path d="M331.78 394.075C330.197 396.757 328.578 399.487 327.817 402.514C327.055 405.542 327.233 408.951 329.019 411.514C332.256 416.138 339.563 416.079 344.228 412.884C348.893 409.69 351.547 404.374 354.023 399.284C359.652 387.686 369.077 372.083 368.125 358.709C367.661 352.154 362.794 347.743 357.367 352.726C352.237 357.434 349.084 364.836 345.585 370.748C340.967 378.532 336.373 386.303 331.78 394.075Z" fill="#E59617"/>
<path d="M368.114 358.71C367.65 352.154 362.783 347.743 357.356 352.726C357.165 352.893 356.987 353.083 356.808 353.262C357.034 355.873 356.38 358.352 355.535 360.819C354.452 363.966 353.476 367.053 352.619 370.272C350.727 377.376 348.525 384.396 347.014 391.596C345.407 399.236 343.563 406.877 341.266 414.374C342.325 414.005 343.324 413.504 344.241 412.884C348.906 409.69 351.56 404.374 354.035 399.284C359.641 387.674 369.066 372.083 368.114 358.71Z" fill="#121B46"/>
<path d="M350.981 304.024C350.148 307.48 350.219 311.104 350.695 314.632C352.385 311.45 354.075 308.267 355.777 305.084C356.896 302.975 358.895 299.446 357.443 297.051C355.777 294.309 353.456 298.111 352.683 299.542C351.921 300.948 351.35 302.474 350.981 304.024Z" fill="#372732"/>
<path d="M387.729 343.478C388.241 344.837 388.8 346.16 389.407 347.423C388.431 349.569 387.432 351.75 385.968 353.586C383.076 357.197 378.434 358.103 373.948 357.591C372.258 357.4 370.461 357.138 368.937 356.268C367.997 355.731 367.259 354.813 367.093 353.705C366.986 352.966 367.069 352.215 367.14 351.476C367.414 348.854 367.593 346.243 367.676 343.645C367.747 341.308 367.807 338.841 366.843 336.672C366.545 335.98 366.2 335.313 365.807 334.669C365.724 334.538 364.665 333.155 364.712 333.084C365.855 330.795 367.355 328.924 368.83 326.933C369.782 325.658 370.27 324.156 371.46 323.107C373.008 321.748 375.245 320.962 377.268 320.64C377.804 320.556 382.862 320.282 382.933 321.009C383.635 327.994 385.004 336.243 387.729 343.478Z" fill="#F6BC8C" stroke="#B5573E" stroke-width="0.7" stroke-miterlimit="10" stroke-linecap="round" stroke-linejoin="round"/>
<path opacity="0.3" d="M366.791 337.209C367.755 339.366 367.672 341.81 367.589 344.11C367.565 344.802 367.517 345.505 367.47 346.196C370.6 344.552 373.492 342.489 375.61 339.581C379.478 334.253 377.99 328.055 375.527 322.417C375.36 322.035 375.336 321.666 375.396 321.332C370.85 324.443 367.089 328.698 364.649 333.645C364.614 333.728 365.673 335.087 365.756 335.218C366.137 335.862 366.494 336.53 366.791 337.209Z" fill="#E79974"/>
<path d="M377.946 330.713C376.113 335.743 371.781 339.689 366.735 341.19C362.832 342.347 360.309 340.63 358.024 337.46C356.357 335.159 354.929 332.68 353.763 330.081C353.168 328.77 352.502 327.376 352.156 325.969C351.847 324.717 352.109 323.382 351.668 322.131C351.359 321.261 350.74 320.534 350.383 319.675C349.657 317.923 350.157 316.04 350.597 314.288C351.038 312.536 351.133 310.855 351.383 309.079C352.692 299.484 364.284 293.166 372.924 296.766C383.301 301.093 386.657 310.712 384.289 319.008" fill="#F6BC8C"/>
<path d="M377.946 330.713C376.113 335.743 371.781 339.689 366.735 341.19C362.832 342.347 360.309 340.63 358.024 337.46C356.357 335.159 354.929 332.68 353.763 330.081C353.168 328.77 352.502 327.376 352.156 325.969C351.847 324.717 352.109 323.382 351.668 322.131C351.359 321.261 350.74 320.534 350.383 319.675C349.657 317.923 350.157 316.04 350.597 314.288C351.038 312.536 351.133 310.855 351.383 309.079C352.692 299.484 364.284 293.166 372.924 296.766C383.301 301.093 386.657 310.712 384.289 319.008" stroke="#B5573E" stroke-width="0.7" stroke-miterlimit="10" stroke-linecap="round" stroke-linejoin="round"/>
<path d="M357.047 316.707C357.559 319.973 358.154 323.632 357.297 326.874C357.178 327.304 357.047 327.78 357.213 328.198C357.404 328.662 357.904 328.913 358.368 329.115C359.022 329.401 359.677 329.688 360.332 329.986" fill="#F6BC8C"/>
<path d="M357.047 316.707C357.559 319.973 358.154 323.632 357.297 326.874C357.178 327.304 357.047 327.78 357.213 328.198C357.404 328.662 357.904 328.913 358.368 329.115C359.022 329.401 359.677 329.688 360.332 329.986" stroke="#B5573E" stroke-width="0.7" stroke-miterlimit="10" stroke-linecap="round" stroke-linejoin="round"/>
<path d="M365.577 320.892C363.899 320.904 363.887 318.293 365.565 318.281C367.243 318.281 367.255 320.892 365.577 320.892Z" fill="#121B46"/>
<path d="M352.125 321.38C352.125 321.344 352.125 321.32 352.125 321.284C352.09 319.699 354.66 319.699 354.577 321.272C354.577 321.308 354.577 321.332 354.577 321.368C354.482 322.929 352.161 322.965 352.125 321.38Z" fill="#121B46"/>
<path d="M370.852 314.477C368.269 313.119 363.485 313.464 361.045 315.05C360.355 315.502 360.545 316.826 361.509 316.742C363.08 316.611 364.568 316.003 366.139 315.8C367.674 315.598 369.233 315.693 370.733 315.324C371.113 315.228 371.197 314.656 370.852 314.477Z" fill="#121B46"/>
<path d="M355.432 316.323C354.396 315.655 352.98 315.632 351.79 315.751C350.636 315.87 349.148 315.989 348.327 316.883C347.922 317.324 348.041 318.182 348.708 318.314C349.826 318.528 350.957 318.016 352.076 317.837C353.194 317.658 354.385 317.622 355.432 317.169C355.789 317.002 355.706 316.49 355.432 316.323Z" fill="#121B46"/>
<path d="M368.204 330.652C366.454 332.548 363.836 333.585 361.266 333.406Z" fill="#F6BC8C"/>
<path d="M368.181 330.559C367.943 330.654 367.728 330.833 367.526 330.988C367.252 331.202 366.979 331.405 366.693 331.596C366.146 331.953 365.574 332.251 364.956 332.49C364.372 332.716 363.765 332.883 363.147 332.978C362.813 333.026 362.48 333.062 362.147 333.074C361.826 333.086 361.492 333.05 361.171 333.098C360.826 333.157 360.873 333.658 361.171 333.753C361.79 333.944 362.599 333.801 363.218 333.694C363.896 333.586 364.575 333.396 365.205 333.122C365.836 332.859 366.431 332.526 366.979 332.12C367.455 331.775 368.109 331.286 368.3 330.702C368.324 330.618 368.252 330.535 368.181 330.559Z" fill="#B5573E"/>
<path d="M359.31 305.776C358.834 306.157 358.512 306.813 358.346 307.456C358.108 308.374 358.12 309.364 357.882 310.281C357.644 311.199 357.084 312.129 356.239 312.296C355.228 312.498 354.335 311.569 353.657 310.71C352.978 309.852 352.121 308.899 351.098 309.042C350.348 309.149 349.789 309.805 349.218 310.365C348.646 310.913 347.873 311.402 347.171 311.08C346.266 310.663 346.207 309.22 346.516 308.183C346.837 307.146 347.373 306.086 347.135 305.025C346.873 303.857 345.778 303.201 345.028 302.331C343.803 300.913 343.446 298.624 344.195 296.836C344.945 295.048 346.73 293.856 348.492 293.987C348.825 294.011 349.182 294.083 349.503 293.951C350.098 293.701 350.301 292.914 350.539 292.259C351.467 289.613 354.014 287.801 356.561 287.968C358.084 288.075 359.441 288.886 360.952 289.041C362.749 289.219 364.272 288.635 365.796 287.563C367.426 286.418 368.973 285 370.866 284.571C373.091 284.07 375.531 285.202 376.792 287.312C377.268 288.123 377.613 289.076 378.316 289.648C379.744 290.805 381.731 289.792 383.492 289.923C385.135 290.054 386.646 291.341 387.206 293.069C387.753 294.798 387.301 296.86 386.111 298.111C388.134 298.636 389.729 300.758 389.836 303.07C389.836 303.153 390.597 303.892 390.693 304.119C390.895 304.596 390.954 305.168 390.871 305.692C390.633 307.218 389.621 307.111 388.598 307.719C387.717 308.255 387.217 309.375 387.098 310.496C386.872 312.618 387.551 314.489 387.087 316.646C387.003 317.064 386.944 318.077 386.611 318.303C386.384 318.458 386.087 318.446 385.825 318.351C384.873 318.017 384.373 316.778 383.433 316.42C382.933 316.229 382.374 316.336 381.862 316.456C380.827 316.694 379.803 317.016 378.792 317.397C379.137 317.266 378.732 314.31 378.649 313.953C378.446 313.059 378.089 311.986 377.352 311.461C376.864 311.116 376.292 310.901 375.876 310.448C375.15 309.65 375.102 308.362 375.245 307.242C375.388 306.121 375.674 304.965 375.436 303.869C375.186 302.76 374.138 301.771 373.198 302.2C372.591 302.474 372.27 303.213 371.913 303.833C371.556 304.453 370.973 305.072 370.33 304.894C369.187 304.596 369.247 302.283 368.093 302.093C367.438 301.985 366.903 302.724 366.772 303.439C366.641 304.155 366.748 304.917 366.605 305.633C366.307 307.182 364.582 307.516 363.451 307.003C362.356 306.503 361.297 305.18 360.012 305.43C359.738 305.49 359.512 305.609 359.31 305.776Z" fill="#121B46"/>
<path d="M359.322 301.687C359.596 302.247 359.87 302.867 360.31 303.308C360.75 303.737 361.405 304.035 362.024 303.988C362.619 303.94 363.166 303.606 363.547 303.153C363.749 302.903 363.928 302.641 364.059 302.355C364.19 302.069 364.356 301.735 364.356 301.413C364.356 301.187 364.071 301.067 363.904 301.222C363.725 301.413 363.63 301.663 363.511 301.902C363.392 302.14 363.273 302.379 363.107 302.593C362.833 302.951 362.44 303.285 361.976 303.332C360.917 303.439 360.096 302.307 359.572 301.556C359.477 301.365 359.239 301.497 359.322 301.687Z" fill="#3D4B7F"/>
<path d="M370.657 296.834C370.502 296.953 370.478 297.299 370.478 297.49C370.466 297.704 370.526 297.942 370.609 298.145C370.788 298.598 371.145 298.968 371.597 299.158C372.025 299.337 372.537 299.349 372.989 299.194C373.477 299.027 373.977 298.67 374.001 298.097C374.013 297.823 373.703 297.68 373.489 297.799C373.453 297.823 373.406 297.835 373.37 297.871C373.358 297.883 373.215 297.99 373.287 297.942C373.227 297.99 373.144 298.026 373.084 298.074C373.013 298.121 372.953 298.169 372.882 298.217C372.846 298.24 372.811 298.252 372.787 298.276C372.763 298.288 372.739 298.3 372.715 298.312C372.775 298.288 372.775 298.288 372.727 298.312C372.656 298.336 372.585 298.36 372.501 298.372C372.477 298.372 372.454 298.383 372.43 298.383C372.489 298.372 372.489 298.372 372.454 298.383C372.406 298.383 372.37 298.395 372.323 298.395C372.287 298.395 372.251 298.395 372.204 298.395C372.168 298.395 372.097 298.383 372.168 298.395C372.085 298.383 371.989 298.36 371.906 298.324C371.787 298.288 371.978 298.36 371.87 298.312C371.835 298.288 371.787 298.276 371.751 298.252C371.716 298.229 371.68 298.205 371.644 298.181C371.549 298.121 371.692 298.229 371.609 298.157C371.466 298.014 371.43 297.978 371.323 297.823C371.228 297.668 371.204 297.597 371.145 297.418C371.121 297.346 371.097 297.275 371.085 297.203C371.073 297.096 371.085 297.001 371.026 296.905C370.918 296.739 370.764 296.739 370.657 296.834Z" fill="#3D4B7F"/>
<path d="M378.422 292.853C378.649 292.794 378.851 292.83 379.077 292.83C379.327 292.841 379.577 292.83 379.827 292.841C380.267 292.865 380.719 293.02 381.1 293.259C381.433 293.473 381.707 293.771 381.909 294.117C381.933 294.165 381.969 294.212 381.993 294.26C381.993 294.26 382.076 294.427 382.04 294.355C382.064 294.403 382.076 294.463 382.1 294.51C382.124 294.558 382.195 294.761 382.159 294.665C382.255 294.915 382.302 295.166 382.457 295.392C382.635 295.666 383.135 295.75 383.29 295.392C383.564 294.772 383.326 294.069 382.981 293.533C382.671 293.032 382.231 292.579 381.707 292.305C381.148 292.007 380.541 291.876 379.91 291.924C379.601 291.947 379.291 291.983 379.018 292.138C378.756 292.281 378.577 292.508 378.363 292.71C378.292 292.782 378.339 292.877 378.422 292.853Z" fill="#3D4B7F"/>
<path d="M362.728 294.095C362.871 293.511 363.073 292.938 363.573 292.557C364.096 292.164 364.703 292.009 365.358 292.092C365.989 292.176 366.584 292.485 367.06 292.903C367.298 293.117 367.524 293.368 367.714 293.63C367.905 293.892 368.059 294.297 368.393 294.381C368.571 294.428 368.762 294.321 368.809 294.142C368.916 293.737 368.536 293.344 368.309 293.046C368.059 292.724 367.774 292.426 367.453 292.164C366.786 291.639 365.977 291.294 365.12 291.282C364.323 291.27 363.525 291.556 363.002 292.164C362.561 292.676 362.24 293.451 362.537 294.118C362.585 294.202 362.716 294.178 362.728 294.095Z" fill="#3D4B7F"/>
<path d="M377.999 302.929C378.118 303.072 378.284 303 378.403 303.096C378.451 303.131 378.487 303.179 378.534 303.239C378.511 303.215 378.57 303.298 378.57 303.298C378.57 303.298 378.63 303.406 378.606 303.358C378.618 303.394 378.63 303.441 378.641 303.477C378.665 303.573 378.653 303.406 378.641 303.549C378.641 303.608 378.641 303.656 378.63 303.716C378.63 303.716 378.618 303.847 378.618 303.823C378.594 304.049 378.522 304.276 378.499 304.49C378.427 304.931 378.427 305.36 378.63 305.766C378.82 306.159 379.213 306.469 379.653 306.374C380.022 306.302 380.022 305.813 379.748 305.635C379.713 305.611 379.677 305.587 379.641 305.563C379.617 305.551 379.51 305.48 379.594 305.539C379.57 305.515 379.546 305.492 379.51 305.456C379.582 305.527 379.51 305.444 379.498 305.42C379.474 305.384 379.463 305.349 379.439 305.313C379.486 305.408 379.427 305.277 379.415 305.253C379.403 305.206 379.391 305.158 379.379 305.11C379.355 305.015 379.379 305.182 379.379 305.074C379.379 304.645 379.558 304.192 379.522 303.716C379.486 303.251 379.26 302.762 378.808 302.571C378.63 302.5 378.439 302.464 378.249 302.488C378.094 302.536 377.832 302.726 377.999 302.929Z" fill="#3D4B7F"/>
<path d="M384.112 303.057C384.267 303.224 384.338 303.391 384.434 303.594C384.541 303.785 384.648 303.975 384.731 304.178C384.898 304.559 384.981 304.929 384.993 305.31C385.005 305.704 384.933 306.109 384.791 306.431C384.6 306.86 384.303 307.205 384.088 307.611C383.969 307.849 383.993 308.135 384.184 308.326C384.386 308.529 384.66 308.529 384.898 308.421C385.493 308.159 385.85 307.539 386.076 306.979C386.29 306.455 386.397 305.859 386.35 305.286C386.302 304.702 386.123 304.142 385.802 303.653C385.636 303.403 385.445 303.189 385.219 302.998C385.005 302.819 384.731 302.712 384.481 302.593C384.184 302.426 383.874 302.795 384.112 303.057Z" fill="#3D4B7F"/>
<path d="M350.446 297.372C350.256 296.716 349.459 296.609 348.911 296.883C348.352 297.157 348.018 297.753 347.84 298.313C347.638 298.921 347.578 299.577 347.661 300.209C347.697 300.495 347.757 300.769 347.864 301.043C347.923 301.186 348.03 301.329 348.114 301.46C348.209 301.603 348.316 301.746 348.423 301.865C348.661 302.14 349.054 301.842 348.982 301.532C348.959 301.412 348.947 301.293 348.923 301.186C348.911 301.138 348.911 301.091 348.899 301.043C348.863 300.852 348.875 301.15 348.899 300.96C348.935 300.721 348.84 300.483 348.816 300.256C348.78 299.815 348.792 299.35 348.875 298.957C348.923 298.742 348.982 298.528 349.066 298.325C349.113 298.218 349.209 298.027 349.304 297.932C349.506 297.717 349.792 297.658 350.089 297.729C350.292 297.777 350.506 297.586 350.446 297.372Z" fill="#3D4B7F"/>
<path d="M380.759 316.788C380.735 316.407 380.735 316.025 380.771 315.632C380.866 314.464 381.294 313.284 382.175 312.521C383.056 311.746 384.436 311.496 385.412 312.127C386.328 312.711 386.709 313.856 386.876 314.94C387.304 317.753 386.709 320.71 385.21 323.129C384.841 323.737 384.365 324.345 383.675 324.524C382.996 324.715 382.115 324.226 382.163 323.523" fill="#F6BC8C"/>
<path d="M380.759 316.788C380.735 316.407 380.735 316.025 380.771 315.632C380.866 314.464 381.294 313.284 382.175 312.521C383.056 311.746 384.436 311.496 385.412 312.127C386.328 312.711 386.709 313.856 386.876 314.94C387.304 317.753 386.709 320.71 385.21 323.129C384.841 323.737 384.365 324.345 383.675 324.524C382.996 324.715 382.115 324.226 382.163 323.523" stroke="#B5573E" stroke-width="0.7" stroke-miterlimit="10" stroke-linecap="round" stroke-linejoin="round"/>
<path d="M385.208 316.207C385.149 315.885 385.089 315.563 384.91 315.289C384.744 315.015 384.434 314.8 384.113 314.836C383.816 314.872 383.566 315.11 383.447 315.396C383.328 315.67 383.304 315.992 383.292 316.29C383.232 317.482 383.173 318.662 383.102 319.854" fill="#F6BC8C"/>
<path d="M385.208 316.207C385.149 315.885 385.089 315.563 384.91 315.289C384.744 315.015 384.434 314.8 384.113 314.836C383.816 314.872 383.566 315.11 383.447 315.396C383.328 315.67 383.304 315.992 383.292 316.29C383.232 317.482 383.173 318.662 383.102 319.854" stroke="#B5573E" stroke-width="0.7" stroke-miterlimit="10" stroke-linecap="round" stroke-linejoin="round"/>
<path d="M364.308 437.071C371.377 438.37 378.768 438.919 385.932 438.227C393.263 437.512 400.106 435.343 406.402 432.077C405.58 429.228 404.795 426.403 404.843 423.733C405.021 412.696 405.676 401.67 406.711 390.68C407.318 384.303 408.461 378.117 409.508 371.895C410.198 367.782 411.15 361.298 409.543 357.4C408.234 354.218 405.093 352.382 402.01 351.262C399.737 350.439 397.309 349.891 395.131 349.307C394.524 349.14 393.882 348.961 393.453 348.496C392.918 347.912 392.846 347.054 392.692 346.279C392.168 343.669 389.776 340.641 387.051 340.129C386.967 340.582 387.253 341.023 387.312 341.476C387.372 341.988 387.324 342.561 387.217 343.073C387.051 343.955 386.67 344.766 386.122 345.469C385.027 346.864 383.409 347.734 381.862 348.52C378.03 350.487 371.782 351.298 368.485 347.805C367.949 347.245 367.676 346.554 367.521 345.803C367.426 345.314 367.557 343.741 366.831 343.991C366.248 344.182 365.653 345.636 365.438 346.148C365.177 346.78 365.01 347.448 364.939 348.139C364.677 350.594 361.761 349.939 359.881 350.88C357.608 352.013 355.68 354.039 354.751 356.399C353.775 358.867 353.645 361.584 353.549 364.242C352.978 378.701 352.728 393.171 352.811 407.642C352.859 415.842 351.8 423.888 350.586 431.946C354.525 434.795 359.595 436.201 364.308 437.071Z" fill="#FDBB49"/>
<path d="M366.543 351.212C366.448 350.497 366.531 349.734 366.733 349.043C366.828 348.697 366.959 348.352 367.126 348.03C367.281 347.72 367.495 347.422 367.638 347.088C367.673 346.981 367.531 346.874 367.447 346.945C367.15 347.16 366.947 347.505 366.793 347.827C366.626 348.185 366.495 348.554 366.412 348.948C366.257 349.71 366.305 350.461 366.507 351.212C366.519 351.236 366.543 351.224 366.543 351.212Z" fill="#121B46"/>
<path d="M371.518 354.217C371.375 353.525 371.351 352.834 371.423 352.131C371.458 351.785 371.53 351.451 371.613 351.117C371.661 350.951 371.708 350.796 371.768 350.629C371.827 350.462 371.911 350.307 371.851 350.128C371.815 349.997 371.661 349.926 371.53 349.997C371.244 350.176 371.173 350.712 371.113 351.022C371.042 351.38 370.982 351.737 370.959 352.095C370.911 352.834 370.994 353.597 371.161 354.312C371.232 354.538 371.566 354.443 371.518 354.217Z" fill="#121B46"/>
<path d="M379.421 355.34C379.349 354.911 379.338 354.482 379.278 354.052C379.218 353.611 379.159 353.17 379.088 352.729C379.016 352.312 378.933 351.895 378.85 351.478C378.778 351.073 378.731 350.62 378.493 350.274C378.445 350.202 378.302 350.191 378.278 350.298C378.195 350.715 378.314 351.144 378.397 351.549C378.481 351.967 378.564 352.384 378.659 352.801C378.754 353.218 378.873 353.623 378.98 354.041C379.099 354.482 379.254 354.911 379.361 355.364C379.373 355.399 379.421 355.376 379.421 355.34Z" fill="#121B46"/>
<path d="M383.969 353.814C384.242 353.492 384.278 352.944 384.302 352.538C384.338 352.014 384.326 351.501 384.254 350.977C384.183 350.464 384.088 349.964 383.945 349.463C383.874 349.213 383.79 348.963 383.695 348.724C383.612 348.51 383.517 348.259 383.338 348.104C383.195 347.985 382.945 348.057 382.945 348.271C382.945 348.51 383.076 348.76 383.16 348.974C383.243 349.189 383.314 349.404 383.386 349.618C383.528 350.071 383.636 350.536 383.707 351.001C383.778 351.478 383.826 351.954 383.838 352.443C383.85 352.872 383.778 353.409 383.945 353.814C383.945 353.814 383.957 353.826 383.969 353.814Z" fill="#121B46"/>
<path d="M389.97 349.795C389.851 349.282 389.744 348.746 389.553 348.245C389.375 347.757 389.16 347.28 388.911 346.815C388.661 346.35 388.399 345.909 388.101 345.48C387.958 345.266 387.804 345.063 387.649 344.86C387.506 344.67 387.375 344.431 387.125 344.407C387.042 344.395 386.982 344.479 386.971 344.562C386.947 344.789 387.161 344.944 387.292 345.111C387.447 345.313 387.601 345.528 387.756 345.73C388.054 346.148 388.327 346.565 388.577 347.006C389.077 347.9 389.577 348.83 389.934 349.783C389.934 349.831 389.97 349.819 389.97 349.795Z" fill="#121B46"/>
<path d="M391.44 347.436C391.321 346.84 391.297 346.244 391.118 345.66C390.94 345.088 390.678 344.528 390.393 344.003C390.107 343.479 389.786 342.966 389.429 342.49C389.095 342.049 388.703 341.488 388.179 341.262C388.036 341.202 387.917 341.321 387.977 341.464C388.191 341.953 388.643 342.358 388.964 342.788C389.321 343.252 389.655 343.753 389.952 344.266C390.238 344.766 390.476 345.279 390.714 345.803C390.952 346.328 391.273 346.876 391.416 347.448C391.416 347.472 391.44 347.46 391.44 347.436Z" fill="#121B46"/>
<path d="M365.01 349.963C365.807 351.823 367.39 353.384 369.044 354.505C370.651 355.589 372.781 356.626 374.78 356.495C374.899 356.483 374.923 356.317 374.804 356.281C373.876 355.971 372.912 355.78 371.984 355.446C371.055 355.101 370.175 354.672 369.342 354.135C367.604 353.027 366.307 351.561 365.057 349.94C365.045 349.904 364.998 349.928 365.01 349.963Z" fill="#121B46"/>
<path d="M382.776 356.065C384.775 355.588 386.668 354.777 388.358 353.621C389.179 353.061 389.952 352.429 390.666 351.738C391.38 351.058 392.154 350.284 392.571 349.366C392.606 349.294 392.523 349.211 392.452 349.27C391.726 349.902 391.131 350.701 390.428 351.38C389.702 352.083 388.917 352.727 388.084 353.311C386.441 354.443 384.633 355.349 382.728 355.945C382.669 355.969 382.693 356.076 382.776 356.065Z" fill="#121B46"/>
<path d="M387.506 352.275C387.768 352.132 388.03 351.977 388.304 351.858C388.554 351.739 388.78 351.584 389.006 351.441C389.494 351.119 389.91 350.737 390.339 350.344C390.744 349.951 391.101 349.486 391.422 349.021C391.589 348.782 391.743 348.544 391.886 348.306C392.005 348.103 392.184 347.781 392.088 347.543C392.065 347.483 392.005 347.436 391.934 347.459C391.708 347.519 391.565 347.781 391.446 347.972C391.303 348.21 391.172 348.449 391.017 348.675C390.708 349.152 390.339 349.569 389.982 350.01C389.637 350.427 389.232 350.809 388.839 351.19C388.649 351.381 388.423 351.536 388.232 351.727C388.018 351.941 387.744 352.108 387.495 352.263C387.471 352.263 387.495 352.287 387.506 352.275Z" fill="#121B46"/>
<path d="M367.606 347.59C371.236 350.284 376.068 351.642 380.471 350.069C382.292 349.425 383.958 348.305 385.208 346.839C386.338 345.516 387.529 343.501 387.41 341.69C387.386 341.332 386.874 341.237 386.779 341.606C386.529 342.536 386.422 343.43 386.005 344.312C385.636 345.099 385.136 345.838 384.565 346.493C383.339 347.876 381.733 348.925 379.983 349.497C375.889 350.82 371.296 349.557 367.63 347.578C367.606 347.542 367.594 347.578 367.606 347.59Z" fill="#121B46"/>
<path d="M351.945 356.766C352.909 357.731 353.873 358.697 354.825 359.662Z" fill="#121B46"/>
<path d="M349.445 359.078C350.338 360.115 351.29 361.093 352.302 362.022Z" fill="#121B46"/>
<path d="M348.461 362.488C349.52 363.323 350.532 364.228 351.46 365.194Z" fill="#121B46"/>
<path d="M408.384 359.592C406.504 354.514 398.923 348.519 394.686 353.93C390.509 359.258 390.259 368.246 388.724 374.599C387.2 381.202 385.546 387.77 383.963 394.35C383.702 395.446 383.404 396.519 383.071 397.592C378.299 389.868 372.669 381.429 370.908 378.556C369.706 376.601 368.504 374.658 367.302 372.704C366.231 370.963 364.565 369.02 363.863 367.113L360.685 358.329C360.542 357.935 360.268 357.589 359.911 357.375L355.734 354.765C355.389 354.55 354.984 354.455 354.58 354.49C353.425 354.61 351.283 355.11 352.426 357.208C352.426 357.208 350.76 355.492 349.462 357.089C348.32 358.472 349.986 359.89 349.986 359.89C349.986 359.89 347.725 360.271 348.665 362.536C348.665 362.536 346.154 364.515 348.118 367.268L355.282 373.538C355.484 373.991 355.675 374.444 355.877 374.897C358.043 379.867 360.209 384.838 362.375 389.82C364.755 395.303 367.159 400.786 369.492 406.281C371.634 411.323 373.467 416.544 377.62 420.358C380.774 423.255 385.38 423.565 389.295 422.254C395.234 420.263 398.435 414.553 400.887 409.178C405.242 399.618 407.313 389.415 408.408 379.009C409.003 373.049 410.503 365.29 408.384 359.592Z" fill="#121B46"/>
<path d="M378.763 397.687C378.144 399.451 377.525 401.215 376.918 402.967C375.407 407.294 374.324 411.263 378.013 414.97C382 418.975 389.176 417.64 393.223 413.695C397.269 409.749 398.971 404.052 400.53 398.616C402.422 392.013 404.695 385.505 406.266 378.806C407.623 372.989 410.075 365.468 408.694 359.556C407.921 356.278 404.553 350.926 400.709 350.926C395.996 350.926 393.461 355.682 392.14 359.448C388.736 369.175 385.332 378.901 381.941 388.628C380.881 391.631 379.822 394.659 378.763 397.687Z" fill="#FFC571"/>
<path d="M369.954 373.382C368.621 371.523 367.288 369.651 365.955 367.792C364.765 366.123 362.968 364.299 362.147 362.44L358.374 353.882C358.208 353.5 357.91 353.178 357.529 352.976L353.185 350.652C352.828 350.461 352.424 350.389 352.019 350.461C350.876 350.663 348.77 351.307 350.055 353.31C350.055 353.31 348.282 351.712 347.08 353.381C346.045 354.847 347.794 356.146 347.794 356.146C347.794 356.146 345.557 356.683 346.652 358.876C346.652 358.876 344.271 361.022 346.426 363.632L353.995 369.401C354.221 369.842 354.447 370.271 354.673 370.712C357.172 375.528 359.671 380.343 362.159 385.159C364.955 390.546 367.621 396.018 370.466 401.381C373.06 406.268 375.642 412.884 380.962 415.482C384.949 417.425 391.59 415.756 392.363 410.893C392.72 408.676 392.149 405.899 391.233 403.837C388.472 397.543 373.238 377.983 369.954 373.382Z" fill="#F6BC8C" stroke="#B5573E" stroke-width="0.7" stroke-miterlimit="10" stroke-linecap="round" stroke-linejoin="round"/>
<path d="M349.562 352.914C350.586 353.808 351.609 354.714 352.633 355.608Z" fill="#F6BC8C"/>
<path d="M349.469 352.915C349.516 353.273 349.79 353.535 350.04 353.774C350.302 354.024 350.564 354.25 350.825 354.489C351.087 354.715 351.337 354.954 351.599 355.168C351.742 355.287 351.897 355.419 352.051 355.526C352.194 355.621 352.361 355.705 352.527 355.788C352.706 355.883 352.944 355.681 352.813 355.502C352.718 355.359 352.623 355.228 352.515 355.097C352.408 354.954 352.254 354.823 352.123 354.703C351.861 354.453 351.587 354.227 351.325 354C351.063 353.774 350.802 353.547 350.54 353.333C350.266 353.106 349.945 352.832 349.564 352.832C349.516 352.832 349.469 352.868 349.469 352.915Z" fill="#B5573E"/>
<path d="M347.227 355.395C348.191 356.36 349.214 357.278 350.285 358.136Z" fill="#F6BC8C"/>
<path d="M347.166 355.432C347.202 355.504 347.213 355.599 347.261 355.671C347.297 355.742 347.356 355.814 347.404 355.873C347.523 356.016 347.642 356.147 347.773 356.279C348.023 356.529 348.284 356.779 348.546 357.018C348.796 357.256 349.07 357.471 349.332 357.697C349.475 357.816 349.617 357.947 349.784 358.031C349.939 358.114 350.07 358.233 350.236 358.281C350.379 358.329 350.498 358.162 350.427 358.043C350.343 357.9 350.201 357.804 350.093 357.673C350.034 357.602 349.986 357.542 349.915 357.482C349.844 357.423 349.784 357.375 349.713 357.316C349.439 357.089 349.177 356.839 348.903 356.612C348.642 356.386 348.38 356.159 348.118 355.921C347.987 355.802 347.856 355.695 347.725 355.587C347.666 355.54 347.594 355.468 347.523 355.432C347.44 355.385 347.344 355.373 347.261 355.325C347.202 355.289 347.13 355.373 347.166 355.432Z" fill="#B5573E"/>
<path d="M346.469 358.863C347.587 359.614 348.647 360.461 349.646 361.366Z" fill="#F6BC8C"/>
<path d="M346.306 358.899C346.353 359.244 346.746 359.435 346.996 359.638C347.282 359.864 347.567 360.079 347.853 360.305C348.127 360.52 348.4 360.746 348.674 360.973C348.96 361.199 349.281 361.318 349.614 361.449C349.686 361.473 349.733 361.39 349.709 361.33C349.674 361.259 349.614 361.187 349.578 361.116C349.543 361.044 349.507 360.961 349.471 360.889C349.388 360.734 349.257 360.591 349.126 360.472C348.864 360.222 348.579 360.007 348.293 359.781C348.008 359.554 347.722 359.34 347.424 359.137C347.174 358.97 346.794 358.613 346.46 358.696C346.389 358.72 346.294 358.815 346.306 358.899Z" fill="#B5573E"/>
<path d="M350.683 333.013L337.188 336.984L344.746 362.749L358.242 358.777L350.683 333.013Z" fill="#121B46"/>
<path d="M346.173 338.28C346.649 338.923 346.518 339.841 345.876 340.318C345.233 340.795 344.317 340.664 343.841 340.02C343.365 339.376 343.496 338.459 344.138 337.982C344.781 337.505 345.697 337.636 346.173 338.28Z" fill="#4E4E4E"/>
<path d="M345.875 338.508C346.232 338.984 346.136 339.664 345.649 340.021C345.172 340.379 344.494 340.284 344.137 339.795C343.78 339.318 343.875 338.639 344.363 338.281C344.839 337.935 345.518 338.031 345.875 338.508Z" fill="#363636"/>
<path d="M345.105 338.424C345.176 338.448 345.236 338.484 345.295 338.531C345.307 338.543 345.343 338.579 345.367 338.591C345.379 338.603 345.39 338.615 345.402 338.615C345.414 338.627 345.402 338.615 345.414 338.627C345.426 338.639 345.45 338.651 345.462 338.662C345.521 338.71 345.557 338.77 345.605 338.829C345.628 338.865 345.64 338.889 345.652 338.925C345.664 338.937 345.664 338.96 345.676 338.972C345.688 338.984 345.7 339.008 345.712 339.02C345.736 339.056 345.783 339.044 345.795 338.996C345.795 338.949 345.795 338.913 345.783 338.865C345.771 338.829 345.747 338.782 345.736 338.746C345.7 338.662 345.652 338.591 345.593 338.531C345.557 338.496 345.533 338.46 345.498 338.436C345.462 338.412 345.426 338.388 345.39 338.376C345.307 338.341 345.224 338.317 345.14 338.293C345.057 338.293 345.033 338.4 345.105 338.424Z" fill="#7F7F7F"/>
<path d="M341.875 413.828C343.993 411.289 344.993 407.499 345.028 404.233C345.028 404.114 345.028 403.983 345.028 403.863C345.076 397.427 342.172 363.73 342.172 363.73L349.979 360.19C349.979 360.19 354.264 356.888 356.287 353.086C356.465 352.752 356.62 352.406 356.644 352.025C356.715 350.928 355.442 350.547 354.644 351.036C356.037 349.558 355.858 349.069 355.573 348.544C355.144 347.758 354.228 347.781 354.228 347.781C355.073 347.329 355.299 347.114 354.847 345.719C354.335 344.146 352.621 344.921 351.741 345.123C351.038 345.29 350.158 345.743 349.836 345.922C349.753 345.982 349.682 346.041 349.598 346.101L348.028 347.591L349.908 345.231C353.074 342.346 354.478 340.236 354.085 339.295C353.692 338.353 352.657 339.116 352.657 339.116C350.467 341.178 348.266 343.252 346.076 345.314C344.576 346.721 343.089 348.127 341.589 349.534C341.375 349.736 341.161 349.927 340.946 350.118C340.935 349.963 340.923 349.784 340.911 349.617L339.268 344.003C338.888 344.063 338.554 344.361 338.376 344.718C338.185 345.111 338.138 345.564 338.09 346.005C337.65 349.844 335.65 353.133 334.199 356.59C332.616 360.369 332.128 364.505 331.652 368.545C330.545 377.998 329.438 387.462 328.331 396.914C327.915 400.43 327.51 404.006 328.046 407.511C328.546 410.777 330.117 414.627 332.985 416.546C336.115 418.632 339.744 416.391 341.875 413.828ZM351.776 354.099L354.847 350.916C354.383 351.441 353.907 351.965 353.288 352.645C352.8 353.145 352.348 353.682 351.776 354.099Z" fill="#F6BC8C" stroke="#B5573E" stroke-width="0.7" stroke-miterlimit="10" stroke-linecap="round" stroke-linejoin="round"/>
<path d="M348.681 351.522C350.359 349.913 352.287 348.757 354.465 347.97C354.881 347.827 354.667 347.183 354.239 347.314C351.966 348.065 349.931 349.424 348.526 351.367C348.443 351.486 348.574 351.617 348.681 351.522Z" fill="#B5573E"/>
<path d="M279.755 252.449C279.755 254.737 278.875 256.597 277.792 256.597C276.709 256.597 275.828 254.737 275.828 252.449C275.828 250.16 276.709 248.301 277.792 248.301C278.875 248.289 279.755 250.148 279.755 252.449Z" fill="#F6BC8C" stroke="#B5573E" stroke-width="0.7" stroke-miterlimit="10" stroke-linecap="round" stroke-linejoin="round"/>
<path d="M283.221 252.256C283.221 255.391 282.162 257.93 280.841 257.93C279.532 257.93 278.461 255.391 278.461 252.256C278.461 249.121 279.52 246.582 280.841 246.582C282.162 246.57 283.221 249.121 283.221 252.256Z" fill="#F6BC8C" stroke="#B5573E" stroke-width="0.7" stroke-miterlimit="10" stroke-linecap="round" stroke-linejoin="round"/>
<path d="M286.495 252.269C286.495 256.095 285.436 259.194 284.115 259.194C282.805 259.194 281.734 256.095 281.734 252.269C281.734 248.443 282.794 245.344 284.115 245.344C285.424 245.344 286.495 248.443 286.495 252.269Z" fill="#F6BC8C" stroke="#B5573E" stroke-width="0.7" stroke-miterlimit="10" stroke-linecap="round" stroke-linejoin="round"/>
<path d="M291.206 251.874C291.206 255.045 290.147 257.619 288.826 257.619C287.516 257.619 286.445 255.045 286.445 251.874C286.445 248.704 287.505 246.129 288.826 246.129C290.135 246.129 291.206 248.704 291.206 251.874Z" fill="#F6BC8C" stroke="#B5573E" stroke-width="0.7" stroke-miterlimit="10" stroke-linecap="round" stroke-linejoin="round"/>
<path d="M389.805 252.449C389.805 254.737 390.685 256.597 391.768 256.597C392.851 256.597 393.732 254.737 393.732 252.449C393.732 250.16 392.851 248.301 391.768 248.301C390.685 248.289 389.805 250.148 389.805 252.449Z" fill="#F6BC8C" stroke="#B5573E" stroke-width="0.7" stroke-miterlimit="10" stroke-linecap="round" stroke-linejoin="round"/>
<path d="M386.336 252.256C386.336 255.391 387.395 257.93 388.716 257.93C390.025 257.93 391.096 255.391 391.096 252.256C391.096 249.121 390.037 246.582 388.716 246.582C387.395 246.57 386.336 249.121 386.336 252.256Z" fill="#F6BC8C" stroke="#B5573E" stroke-width="0.7" stroke-miterlimit="10" stroke-linecap="round" stroke-linejoin="round"/>
<path d="M383.062 252.269C383.062 256.095 384.122 259.194 385.443 259.194C386.752 259.194 387.823 256.095 387.823 252.269C387.823 248.443 386.764 245.344 385.443 245.344C384.134 245.344 383.062 248.443 383.062 252.269Z" fill="#F6BC8C" stroke="#B5573E" stroke-width="0.7" stroke-miterlimit="10" stroke-linecap="round" stroke-linejoin="round"/>
<path d="M378.352 251.874C378.352 255.045 379.411 257.619 380.732 257.619C382.041 257.619 383.112 255.045 383.112 251.874C383.112 248.704 382.053 246.129 380.732 246.129C379.423 246.129 378.352 248.704 378.352 251.874Z" fill="#F6BC8C" stroke="#B5573E" stroke-width="0.7" stroke-miterlimit="10" stroke-linecap="round" stroke-linejoin="round"/>
<path d="M519.911 333.847L485.934 336.207C481.661 336.505 478.448 340.212 478.746 344.48L480.198 365.41C480.495 369.69 484.196 372.908 488.457 372.61L522.434 370.25C526.707 369.952 529.92 366.245 529.622 361.978L528.17 341.047C527.885 336.779 524.184 333.549 519.911 333.847Z" fill="#D73535"/>
<path d="M515.077 350.01C514.791 347.03 512.804 344.432 509.186 344.658C506.936 344.801 505.08 346.22 504.283 348.175C503.247 346.339 501.224 345.147 498.987 345.29C494.036 345.6 492.643 351.035 494.786 354.766C497.047 358.712 500.915 361.441 505.151 362.907H505.223C509.031 361.036 512.827 357.925 514.494 353.92C515.017 352.68 515.208 351.309 515.077 350.01Z" fill="#F3F4F4"/>
<path d="M314.942 280.472L280.965 282.832C276.693 283.13 273.479 286.837 273.777 291.105L275.229 312.035C275.526 316.315 279.228 319.533 283.488 319.235L317.465 316.875C321.738 316.577 324.951 312.87 324.654 308.603L323.202 287.672C322.904 283.404 319.203 280.174 314.942 280.472Z" fill="#D73535"/>
<path d="M310.1 296.635C309.815 293.655 307.827 291.057 304.209 291.283C301.96 291.426 300.103 292.845 299.306 294.8C298.271 292.964 296.247 291.772 294.01 291.915C289.059 292.213 287.667 297.66 289.809 301.391C292.07 305.337 295.938 308.066 300.175 309.532H300.246C304.054 307.661 307.851 304.55 309.517 300.545C310.041 299.305 310.231 297.934 310.1 296.635Z" fill="#F3F4F4"/>
<path d="M187.123 116.254L152.884 118.578C148.588 118.864 145.339 122.512 145.636 126.719L147.1 147.304C147.397 151.512 151.122 154.683 155.431 154.385L189.67 152.06C193.966 151.774 197.215 148.127 196.918 143.919L195.454 123.334C195.156 119.138 191.419 115.956 187.123 116.254Z" fill="#D73535"/>
<path d="M182.24 132.156C181.942 129.224 179.955 126.673 176.313 126.888C174.052 127.019 172.183 128.425 171.362 130.344C170.315 128.533 168.28 127.364 166.019 127.507C161.032 127.805 159.628 133.157 161.782 136.829C164.067 140.714 167.959 143.396 172.231 144.839H172.302C176.135 143.003 179.967 139.94 181.645 135.994C182.18 134.778 182.371 133.432 182.24 132.156Z" fill="#F3F4F4"/>
<path d="M523.181 183.992L489.275 187.223C485.014 187.628 481.896 191.418 482.301 195.685L484.288 216.569C484.693 220.836 488.478 223.959 492.738 223.554L526.644 220.323C530.905 219.918 534.023 216.128 533.618 211.86L531.631 190.977C531.214 186.722 527.43 183.587 523.181 183.992Z" fill="#57A5FA"/>
<path d="M506.7 216.198L519.85 214.959C519.957 214.947 520.053 214.923 520.148 214.875C520.6 214.637 521.552 214.053 521.873 213.171C522.064 212.646 521.992 212.074 521.659 211.43C521.481 211.085 521.564 210.668 521.861 210.417C522.016 210.286 523.42 209.023 522.421 207.354C522.218 207.008 522.278 206.567 522.587 206.305C522.73 206.186 523.944 205.018 522.968 203.492C522.742 203.134 522.814 202.67 523.147 202.407C523.159 202.395 524.313 201.442 524.016 200.309C523.789 199.463 522.052 199.451 521.6 199.499L512.829 200.25C512.269 200.298 511.829 199.785 511.96 199.237C512.234 198.152 512.793 194.946 512.198 193.241C511.591 191.525 510.698 189.999 510.329 189.391C510.246 189.26 510.139 189.165 510.008 189.093C509.877 189.022 509.699 188.95 509.496 188.926C509.104 188.867 508.711 188.974 508.318 189.236C508.08 189.403 507.949 189.689 507.973 189.987L508.342 193.849L508.306 193.98C508.259 194.135 507.247 197.926 504.272 202.538L504.2 202.658L502.689 203.826L502.344 203.993L503.343 214.565C503.391 215.018 503.784 215.352 504.236 215.304C504.379 215.292 504.522 215.316 504.653 215.376L506.283 216.127C506.414 216.186 506.557 216.21 506.7 216.198Z" fill="white"/>
<path d="M493.654 218.332L501.972 217.545L501.354 211.049L500.616 203.277L492.297 204.064L493.654 218.332Z" fill="white"/>
<path d="M186.275 387.071L152.369 390.301C148.108 390.706 144.99 394.496 145.395 398.764L147.382 419.647C147.787 423.914 151.571 427.037 155.832 426.632L189.738 423.402C193.998 422.996 197.116 419.206 196.712 414.939L194.724 394.055C194.32 389.788 190.535 386.665 186.275 387.071Z" fill="#57A5FA"/>
<path d="M169.801 419.277L182.952 418.037C183.059 418.025 183.154 418.001 183.249 417.954C183.701 417.715 184.654 417.131 184.975 416.237C185.165 415.713 185.094 415.141 184.761 414.497C184.582 414.151 184.665 413.734 184.963 413.484C185.118 413.353 186.522 412.089 185.522 410.42C185.32 410.075 185.379 409.634 185.689 409.371C185.832 409.252 187.046 408.084 186.07 406.558C185.844 406.201 185.915 405.736 186.248 405.474C186.26 405.462 187.415 404.508 187.117 403.376C186.891 402.53 185.153 402.518 184.701 402.565L175.93 403.316C175.371 403.364 174.93 402.851 175.061 402.303C175.335 401.218 175.894 398.012 175.299 396.307C174.692 394.591 173.8 393.065 173.431 392.457C173.348 392.326 173.24 392.231 173.11 392.159C172.979 392.088 172.8 392.016 172.598 391.993C172.205 391.933 171.812 392.04 171.42 392.302C171.182 392.469 171.051 392.755 171.074 393.053L171.443 396.915L171.408 397.058C171.36 397.213 170.349 401.004 167.373 405.617L167.302 405.736L165.79 406.904L165.445 407.071L166.445 417.644C166.493 418.097 166.885 418.43 167.338 418.383C167.48 418.371 167.623 418.395 167.754 418.454L169.385 419.205C169.504 419.265 169.658 419.289 169.801 419.277Z" fill="white"/>
<path d="M156.747 421.41L165.066 420.623L164.447 414.127L163.709 406.355L155.391 407.142L156.747 421.41Z" fill="white"/>
<path d="M216.009 263.141L182.103 266.371C177.843 266.776 174.724 270.567 175.129 274.834L177.117 295.717C177.521 299.984 181.306 303.107 185.566 302.702L219.472 299.472C223.733 299.066 226.851 295.276 226.446 291.009L224.459 270.126C224.054 265.87 220.27 262.735 216.009 263.141Z" fill="#57A5FA"/>
<path d="M199.52 295.347L212.67 294.107C212.778 294.095 212.873 294.071 212.968 294.024C213.42 293.785 214.372 293.201 214.694 292.319C214.884 291.795 214.813 291.223 214.479 290.579C214.301 290.233 214.384 289.816 214.682 289.566C214.836 289.435 216.241 288.171 215.241 286.502C215.039 286.157 215.098 285.716 215.408 285.453C215.55 285.334 216.764 284.166 215.789 282.64C215.562 282.283 215.634 281.818 215.967 281.556C215.979 281.544 217.133 280.59 216.836 279.458C216.61 278.612 214.872 278.6 214.42 278.647L205.649 279.398C205.09 279.446 204.649 278.933 204.78 278.385C205.054 277.3 205.613 274.094 205.018 272.39C204.411 270.673 203.519 269.147 203.15 268.539C203.066 268.408 202.959 268.313 202.828 268.242C202.697 268.17 202.519 268.098 202.317 268.075C201.924 268.015 201.531 268.122 201.138 268.385C200.9 268.551 200.769 268.837 200.793 269.135L201.162 272.997L201.126 273.14C201.079 273.295 200.067 277.086 197.092 281.699L197.021 281.818L195.509 282.986L195.164 283.153L196.164 293.726C196.211 294.179 196.604 294.512 197.056 294.465C197.199 294.453 197.342 294.477 197.473 294.536L199.103 295.287C199.234 295.335 199.377 295.371 199.52 295.347Z" fill="white"/>
<path d="M186.482 297.492L194.801 296.705L194.182 290.209L193.444 282.438L185.125 283.224L186.482 297.492Z" fill="white"/>
<path d="M212.093 387.94C213.783 384.137 215.521 380.371 217.449 376.676C219.234 373.267 221.114 369.893 223.078 366.556L223.447 365.924C226.446 360.882 229.624 355.935 232.98 351.12L233.384 350.536C236.847 345.601 240.477 340.786 244.274 336.137C247.035 332.752 249.891 328.997 253.402 326.339C255.996 324.372 258.733 325.969 260.661 328.067C260.828 328.246 260.995 328.437 261.149 328.616L260.638 329.057C257.365 331.893 254.675 335.541 252.009 338.938C248.391 343.527 244.916 348.223 241.489 352.955C239.216 356.102 236.907 359.249 234.812 362.515C231.444 367.772 228.35 373.231 225.315 378.69C221.888 384.864 218.389 391.122 215.735 397.678L215.449 398.405C214.783 398.345 214.128 398.262 213.51 398.095C212.474 397.821 211.498 397.249 210.951 396.307C209.451 393.756 211.034 390.324 212.093 387.94Z" fill="#121B46"/>
<path d="M215.731 397.691C218.385 391.135 221.884 384.878 225.312 378.703C228.346 373.244 231.441 367.785 234.809 362.528C236.903 359.262 239.212 356.116 241.485 352.969C244.901 348.237 248.388 343.54 252.006 338.951C254.671 335.566 257.361 331.907 260.634 329.07L261.146 328.629C263.204 331.049 264.609 333.969 266.061 336.77C273.285 350.704 280.913 364.841 292.005 376.141C293.397 377.559 294.849 378.918 296.361 380.205L295.992 380.801C290.779 389.717 285.245 398.442 279.616 407.108L279.235 407.692C271.464 404.223 263.395 401.422 254.969 400.039C247.519 398.812 239.974 398.728 232.44 398.681C228.12 398.657 223.788 398.633 219.468 398.502C218.159 398.466 216.779 398.526 215.422 398.418L215.731 397.691Z" fill="#FDBB49"/>
<path d="M279.242 407.678C279.575 407.821 279.909 407.976 280.242 408.119C281.325 408.775 282.408 409.418 283.503 410.062L284.098 410.408C288.62 413.042 293.238 415.521 297.927 417.846L298.546 418.155C298.569 418.167 298.593 418.179 298.617 418.191C299.664 418.704 300.902 419.562 302.092 419.669C303.068 419.753 303.889 419.145 304.663 418.644C306.817 417.226 308.816 415.569 310.613 413.721C314.112 410.098 316.849 405.747 318.551 400.991C319.289 398.929 320.11 396.557 318.801 394.543C317.492 392.528 314.909 391.372 312.946 390.156C307.567 386.831 302.128 383.589 296.641 380.43C296.546 380.346 296.463 380.275 296.368 380.191L295.999 380.787C290.786 389.703 285.252 398.428 279.623 407.094L279.242 407.678Z" fill="#121B46"/>
<path d="M220.832 351.98C219.345 353.947 217.488 356.402 218.119 359.025C218.773 361.754 221.63 363.733 223.331 365.807C223.355 365.831 223.427 365.902 223.45 365.938C226.449 360.896 229.627 355.949 232.983 351.134C231.031 350.359 229.103 349.489 227.092 348.869C226.116 348.559 225.236 348.261 224.283 348.738C222.832 349.453 221.784 350.705 220.832 351.98Z" fill="#FDBB49"/>
<path d="M302.208 392.302C303.803 391.206 306.719 393.84 307.849 394.638C308.956 395.342 310.646 396.236 311.217 397.511C311.61 398.381 311.086 399.418 310.039 399.263C309.468 399.18 308.873 398.739 308.397 398.465C307.325 397.869 306.266 397.237 305.231 396.558C304.481 396.069 300.399 393.554 302.208 392.302Z" fill="#FDBB49"/>
<path d="M304.343 398.738C305.462 399.513 306.652 400.204 307.723 401.062C308.306 401.539 308.746 401.992 308.58 402.791C308.08 405.187 304.759 402.552 303.819 401.933C302.653 401.17 301.463 400.383 300.368 399.525C299.761 399.048 299.035 398.404 299.106 397.534C299.344 394.924 303.641 398.238 304.343 398.738Z" fill="#FDBB49"/>
<path d="M268.625 424.831C274.54 421.04 279.265 415.593 283.501 410.062L284.097 410.408C288.619 413.042 293.236 415.522 297.925 417.846L298.544 418.156C295.843 422.256 292.998 426.214 289.69 429.849C286.548 433.306 283.561 436.858 279.872 439.754C278.396 440.922 276.992 442.007 275.052 441.101C272.612 439.945 271.005 437.287 269.185 435.38C267.768 433.89 265.638 432.054 265.114 429.956C264.484 427.358 266.781 426.011 268.625 424.831Z" fill="#FDBB49"/>
<path d="M256.586 459.266V476.323L273.616 459.266H256.586Z" fill="white"/>
<path d="M247.664 462.603H419.36L419.467 413.828H247.664V462.603Z" fill="white"/>
<path d="M327.13 450.98H276.812V455.605H327.13V450.98Z" fill="#CACACA"/>
<path d="M272.966 453.305C272.966 456.499 270.372 459.098 267.182 459.098C263.993 459.098 261.398 456.499 261.398 453.305C261.398 450.11 263.993 447.512 267.182 447.512C270.372 447.512 272.966 450.11 272.966 453.305Z" fill="#979797"/>
<path d="M327.128 439.465H262.625V444.09H327.128V439.465Z" fill="#CACACA"/>
<path d="M343.659 428.512H262.625V434.114H343.659V428.512Z" fill="#979797"/>
<path d="M386.287 428.512H345.859V434.114H386.287V428.512Z" fill="#1264D3"/>
<path d="M405.745 428.512H388.5V434.114H405.745V428.512Z" fill="#CACACA"/>
<path d="M300.089 421.824H262.625V426.449H300.089V421.824Z" fill="#CACACA"/>
<path d="M421.786 178.332C438.6 178.332 452.229 164.681 452.229 147.842C452.229 131.003 438.6 117.352 421.786 117.352C404.973 117.352 391.344 131.003 391.344 147.842C391.344 164.681 404.973 178.332 421.786 178.332Z" stroke="#57A5FA" stroke-miterlimit="10" stroke-dasharray="4.46 4.46"/>
<path d="M137.091 354.086C153.904 354.086 167.534 340.435 167.534 323.596C167.534 306.756 153.904 293.105 137.091 293.105C120.278 293.105 106.648 306.756 106.648 323.596C106.648 340.435 120.278 354.086 137.091 354.086Z" stroke="#57A5FA" stroke-miterlimit="10" stroke-dasharray="4.46 4.46"/>
</g>
<defs>
<linearGradient id="paint0_linear" x1="285.279" y1="0.556992" x2="289.208" y2="634.7" gradientUnits="userSpaceOnUse">
<stop stop-color="#57A5FA"/>
<stop offset="1" stop-color="#1264D3"/>
</linearGradient>
<clipPath id="clip0">
<rect x="106.055" y="104.609" width="459.236" height="430.275" fill="white"/>
</clipPath>
</defs>
</svg>
