<svg width="27" height="27" viewBox="0 0 27 27" fill="none" xmlns="http://www.w3.org/2000/svg">
<g clip-path="url(#clip0)">
<path d="M24.2397 19.4461V13.1524C24.2397 9.28809 21.9754 6.05312 18.0266 5.19718V4.34124C18.0266 3.29648 17.1016 2.45312 15.9556 2.45312C14.8096 2.45312 13.8846 3.29648 13.8846 4.34124V5.19718C9.92203 6.05312 7.67152 9.2755 7.67152 13.1524V19.4461L4.91016 21.9636V23.2224H27.0011V21.9636L24.2397 19.4461ZM17.3363 19.4461H14.5749V16.9286H17.3363V19.4461ZM17.3363 14.4112H14.5749V9.3762H17.3363V14.4112ZM15.9556 26.9986C17.4744 26.9986 18.717 25.8657 18.717 24.4811H13.1942C13.1942 25.8657 14.4231 26.9986 15.9556 26.9986Z" fill="#A3A3A3"/>
</g>
<defs>
<clipPath id="clip0">
<rect width="27" height="27" fill="white"/>
</clipPath>
</defs>
</svg>
