<svg width="447" height="28" viewBox="0 0 447 28" fill="none" xmlns="http://www.w3.org/2000/svg">
<path fill-rule="evenodd" clip-rule="evenodd" d="M208 13.2813L0 13.2812V16.2812L208 16.2813V14.2812V13.2813ZM237.5 16.2813L447 16.2813V13.2813L237.5 13.2813V14.2812V16.2813Z" fill="url(#paint0_linear)"/>
<path d="M216.787 21.4961C214.814 21.4961 213.33 21.0501 212.334 20.1582C211.338 19.2663 210.84 17.9316 210.84 16.1543V15.3828C210.84 12.8177 211.38 10.9232 212.461 9.69922C213.542 8.46875 215.111 7.85352 217.168 7.85352C219.134 7.85352 220.622 8.29948 221.631 9.19141C222.646 10.0833 223.154 11.4212 223.154 13.2051V13.9668C223.154 16.4733 222.624 18.3548 221.562 19.6113C220.501 20.8678 218.91 21.4961 216.787 21.4961ZM220.225 13.6348C220.225 12.222 219.935 11.1478 219.355 10.4121C218.783 9.67643 217.933 9.30859 216.807 9.30859C216.318 9.30859 215.853 9.3737 215.41 9.50391C214.974 9.63411 214.619 9.79036 214.346 9.97266C214.229 10.3893 214.102 11.0176 213.965 11.8574C213.835 12.6973 213.77 13.5501 213.77 14.416V15.7148C213.77 17.0755 214.085 18.1367 214.717 18.8984C215.355 19.6602 216.182 20.041 217.197 20.041C217.718 20.041 218.203 19.9694 218.652 19.8262C219.108 19.6829 219.443 19.5299 219.658 19.3672C219.795 18.8789 219.922 18.2181 220.039 17.3848C220.163 16.5449 220.225 15.7279 220.225 14.9336V13.6348ZM225.83 9.55273L224.434 9.2207L224.629 8.06836H230.088C231.553 8.06836 232.686 8.37109 233.486 8.97656C234.287 9.57552 234.688 10.4642 234.688 11.6426C234.688 12.4238 234.502 13.0944 234.131 13.6543C233.76 14.2077 233.216 14.6536 232.5 14.9922L232.441 15.1777L234.902 19.7871L236.104 20.1289L235.908 21.2812H232.891L229.863 15.5098H228.76V19.7969L230.146 20.1289L229.951 21.2812H224.629L224.434 20.1289L225.83 19.7969V9.55273ZM228.76 9.52344V14.0547H229.473C229.928 14.0547 230.326 14.0319 230.664 13.9863C231.003 13.9408 231.27 13.8757 231.465 13.791C231.543 13.5241 231.605 13.2181 231.65 12.873C231.696 12.5215 231.719 12.1699 231.719 11.8184C231.719 10.9329 231.517 10.3307 231.113 10.0117C230.71 9.6862 230.091 9.52344 229.258 9.52344H228.76Z" fill="black"/>
<defs>
<linearGradient id="paint0_linear" x1="0" y1="13.2812" x2="447" y2="13.2812" gradientUnits="userSpaceOnUse">
<stop stop-color="#FF0C38"/>
<stop offset="1" stop-color="#1FBBFF"/>
</linearGradient>
</defs>
</svg>
